<?xml version="1.0" standalone="no"?><!-- Generator: Gravit.io --><svg xmlns="http://www.w3.org/2000/svg" xmlns:xlink="http://www.w3.org/1999/xlink" style="isolation:isolate" viewBox="0 0 5950 2406.167" width="5950" height="2406.167"><g opacity="0"><rect x="0" y="0" width="5950" height="2406.167" transform="matrix(1,0,0,1,0,0)" fill="rgb(12,20,45)"/></g><path d=" M 1155.523 611.233 C 989.549 668.097 911.127 699.352 920.194 704.909 L 779.433 1056.507 L 1008.083 979.512 L 1154.037 1113.198 L 1294.798 761.6 C 1293.075 743.238 1246.671 693.146 1155.523 611.233 Z  M 999.329 781.076 C 1014.734 742.597 1065.084 717.083 1111.696 724.137 C 1158.307 731.191 1183.643 768.158 1168.238 806.638 C 1152.832 845.118 1102.482 870.632 1055.871 863.578 C 1009.259 856.524 983.923 819.556 999.329 781.076 Z  M 975.413 1053.526 L 835.217 1098.996 L 853.763 1149.251 L 848.836 1214.108 L 876.666 1211.314 L 893.731 1257.556 L 953.603 1214.364 L 975.413 1228.598 L 1004.627 1177.555 L 1065.265 1133.811 L 975.413 1053.526 Z  M 745.474 1137.641 L 848.836 1372.396 L 1121.246 1194.508 L 1059.599 1348.493 C 1031.484 1413.296 1025.186 1460.695 1088.929 1454.333 L 1413.098 1364.502 L 1301.669 1553.792 L 1494.361 1657.752 L 1076.874 1773.444 C 746.053 1860.603 539.718 1667.676 616.155 1463.751 L 745.474 1137.641 Z " fill-rule="evenodd" fill="rgb(255,255,255)"/><clipPath id="_clipPath_NMeu05qrdiflZnCqvTAufCozaEMOv87W"><path d=" M 1155.523 611.233 C 989.549 668.097 911.127 699.352 920.194 704.909 L 779.433 1056.507 L 1008.083 979.512 L 1154.037 1113.198 L 1294.798 761.6 C 1293.075 743.238 1246.671 693.146 1155.523 611.233 Z  M 999.329 781.076 C 1014.734 742.597 1065.084 717.083 1111.696 724.137 C 1158.307 731.191 1183.643 768.158 1168.238 806.638 C 1152.832 845.118 1102.482 870.632 1055.871 863.578 C 1009.259 856.524 983.923 819.556 999.329 781.076 Z  M 975.413 1053.526 L 835.217 1098.996 L 853.763 1149.251 L 848.836 1214.108 L 876.666 1211.314 L 893.731 1257.556 L 953.603 1214.364 L 975.413 1228.598 L 1004.627 1177.555 L 1065.265 1133.811 L 975.413 1053.526 Z  M 745.474 1137.641 L 848.836 1372.396 L 1121.246 1194.508 L 1059.599 1348.493 C 1031.484 1413.296 1025.186 1460.695 1088.929 1454.333 L 1413.098 1364.502 L 1301.669 1553.792 L 1494.361 1657.752 L 1076.874 1773.444 C 746.053 1860.603 539.718 1667.676 616.155 1463.751 L 745.474 1137.641 Z " fill-rule="evenodd" fill="rgb(255,255,255)"/></clipPath><g clip-path="url(#_clipPath_NMeu05qrdiflZnCqvTAufCozaEMOv87W)"><rect x="479.311" y="597.654" width="967.569" height="1187.575" transform="matrix(0.964,-0.267,0.267,0.964,-283.197,300.465)" fill="rgb(255,255,255)"/></g><path d=" M 1968.576 1405.558 L 1968.576 1405.558 L 1764.456 1405.558 L 1764.456 1405.558 Q 1753.746 1405.558 1753.746 1394.848 L 1753.746 1394.848 L 1753.746 1011.178 L 1753.746 1011.178 Q 1753.746 1000.468 1764.456 1000.468 L 1764.456 1000.468 L 1804.146 1000.468 L 1804.146 1000.468 Q 1814.856 1000.468 1814.856 1011.178 L 1814.856 1011.178 L 1814.856 1344.448 L 1814.856 1344.448 Q 1814.856 1350.748 1822.416 1350.748 L 1822.416 1350.748 L 1968.576 1350.748 L 1968.576 1350.748 Q 1979.286 1350.748 1979.286 1362.088 L 1979.286 1362.088 L 1979.286 1394.848 L 1979.286 1394.848 Q 1979.286 1405.558 1968.576 1405.558 Z  M 2171.436 1405.558 L 2171.436 1405.558 L 2131.116 1405.558 L 2131.116 1405.558 Q 2120.406 1405.558 2120.406 1394.848 L 2120.406 1394.848 L 2120.406 1255.618 L 2002.596 1011.808 L 2002.596 1011.808 Q 2000.076 1006.768 2002.596 1003.618 L 2002.596 1003.618 L 2002.596 1003.618 Q 2005.116 1000.468 2009.526 1000.468 L 2009.526 1000.468 L 2059.926 1000.468 L 2059.926 1000.468 Q 2068.116 1000.468 2072.526 1011.178 L 2072.526 1011.178 L 2150.016 1184.428 L 2153.796 1184.428 L 2230.026 1011.178 L 2230.026 1011.178 Q 2233.806 1000.468 2242.626 1000.468 L 2242.626 1000.468 L 2293.026 1000.468 L 2293.026 1000.468 Q 2298.066 1000.468 2300.271 1003.618 L 2300.271 1003.618 L 2300.271 1003.618 Q 2302.476 1006.768 2299.956 1011.808 L 2299.956 1011.808 L 2182.146 1255.618 L 2182.146 1394.848 L 2182.146 1394.848 Q 2182.146 1405.558 2171.436 1405.558 Z  M 2407.686 1405.558 L 2407.686 1405.558 L 2367.996 1405.558 L 2367.996 1405.558 Q 2357.286 1405.558 2357.286 1394.848 L 2357.286 1394.848 L 2357.286 1011.178 L 2357.286 1011.178 Q 2357.286 1000.468 2367.996 1000.468 L 2367.996 1000.468 L 2515.416 1000.468 L 2515.416 1000.468 Q 2561.406 1000.468 2587.551 1026.613 L 2587.551 1026.613 L 2587.551 1026.613 Q 2613.696 1052.758 2613.696 1098.748 L 2613.696 1098.748 L 2613.696 1151.668 L 2613.696 1151.668 Q 2613.696 1224.118 2553.846 1243.018 L 2553.846 1243.018 L 2553.846 1245.538 L 2623.776 1392.958 L 2623.776 1392.958 Q 2630.706 1405.558 2615.586 1405.558 L 2615.586 1405.558 L 2576.526 1405.558 L 2576.526 1405.558 Q 2561.406 1405.558 2556.996 1394.848 L 2556.996 1394.848 L 2489.586 1249.948 L 2425.956 1249.948 L 2425.956 1249.948 Q 2418.396 1249.948 2418.396 1256.248 L 2418.396 1256.248 L 2418.396 1394.848 L 2418.396 1394.848 Q 2418.396 1405.558 2407.686 1405.558 Z  M 2425.326 1199.548 L 2425.326 1199.548 L 2505.336 1199.548 L 2505.336 1199.548 Q 2551.956 1199.548 2551.956 1153.558 L 2551.956 1153.558 L 2551.956 1100.638 L 2551.956 1100.638 Q 2551.956 1054.018 2505.336 1054.018 L 2505.336 1054.018 L 2425.326 1054.018 L 2425.326 1054.018 Q 2418.396 1054.018 2418.396 1060.318 L 2418.396 1060.318 L 2418.396 1193.248 L 2418.396 1193.248 Q 2418.396 1199.548 2425.326 1199.548 Z  M 2720.796 1405.558 L 2720.796 1405.558 L 2675.436 1405.558 L 2675.436 1405.558 Q 2666.616 1405.558 2669.136 1394.848 L 2669.136 1394.848 L 2778.756 1011.178 L 2778.756 1011.178 Q 2781.906 1000.468 2793.876 1000.468 L 2793.876 1000.468 L 2856.876 1000.468 L 2856.876 1000.468 Q 2869.476 1000.468 2871.996 1011.178 L 2871.996 1011.178 L 2981.616 1394.848 L 2981.616 1394.848 Q 2984.136 1405.558 2974.686 1405.558 L 2974.686 1405.558 L 2929.956 1405.558 L 2929.956 1405.558 Q 2924.286 1405.558 2922.081 1403.353 L 2922.081 1403.353 L 2922.081 1403.353 Q 2919.876 1401.148 2918.616 1394.848 L 2918.616 1394.848 L 2894.676 1312.948 L 2756.076 1312.948 L 2732.136 1394.848 L 2732.136 1394.848 Q 2729.616 1405.558 2720.796 1405.558 Z  M 2826.636 1060.948 L 2824.116 1060.948 L 2768.676 1262.548 L 2882.706 1262.548 L 2826.636 1060.948 Z  M 3208.416 1405.558 L 3208.416 1405.558 L 3135.336 1405.558 L 3135.336 1405.558 Q 3088.716 1405.558 3063.201 1379.728 L 3063.201 1379.728 L 3063.201 1379.728 Q 3037.686 1353.898 3037.686 1307.908 L 3037.686 1307.908 L 3037.686 1098.118 L 3037.686 1098.118 Q 3037.686 1051.498 3063.201 1025.983 L 3063.201 1025.983 L 3063.201 1025.983 Q 3088.716 1000.468 3135.336 1000.468 L 3135.336 1000.468 L 3208.416 1000.468 L 3208.416 1000.468 Q 3254.406 1000.468 3280.236 1025.983 L 3280.236 1025.983 L 3280.236 1025.983 Q 3306.066 1051.498 3306.066 1098.118 L 3306.066 1098.118 L 3306.066 1128.358 L 3306.066 1128.358 Q 3306.066 1139.698 3294.726 1139.698 L 3294.726 1139.698 L 3255.036 1139.698 L 3255.036 1139.698 Q 3244.326 1139.698 3244.326 1128.358 L 3244.326 1128.358 L 3244.326 1100.638 L 3244.326 1100.638 Q 3244.326 1054.018 3198.966 1054.018 L 3198.966 1054.018 L 3144.156 1054.018 L 3144.156 1054.018 Q 3098.796 1054.018 3098.796 1100.638 L 3098.796 1100.638 L 3098.796 1305.388 L 3098.796 1305.388 Q 3098.796 1352.008 3144.156 1352.008 L 3144.156 1352.008 L 3198.966 1352.008 L 3198.966 1352.008 Q 3244.326 1352.008 3244.326 1305.388 L 3244.326 1305.388 L 3244.326 1277.668 L 3244.326 1277.668 Q 3244.326 1266.328 3255.036 1266.328 L 3255.036 1266.328 L 3294.726 1266.328 L 3294.726 1266.328 Q 3306.066 1266.328 3306.066 1277.668 L 3306.066 1277.668 L 3306.066 1307.908 L 3306.066 1307.908 Q 3306.066 1353.898 3280.236 1379.728 L 3280.236 1379.728 L 3280.236 1379.728 Q 3254.406 1405.558 3208.416 1405.558 Z  M 3548.616 1405.558 L 3548.616 1405.558 L 3475.536 1405.558 L 3475.536 1405.558 Q 3428.916 1405.558 3403.401 1379.728 L 3403.401 1379.728 L 3403.401 1379.728 Q 3377.886 1353.898 3377.886 1307.908 L 3377.886 1307.908 L 3377.886 1098.118 L 3377.886 1098.118 Q 3377.886 1051.498 3403.401 1025.983 L 3403.401 1025.983 L 3403.401 1025.983 Q 3428.916 1000.468 3475.536 1000.468 L 3475.536 1000.468 L 3548.616 1000.468 L 3548.616 1000.468 Q 3594.606 1000.468 3620.436 1025.983 L 3620.436 1025.983 L 3620.436 1025.983 Q 3646.266 1051.498 3646.266 1098.118 L 3646.266 1098.118 L 3646.266 1128.358 L 3646.266 1128.358 Q 3646.266 1139.698 3634.926 1139.698 L 3634.926 1139.698 L 3595.236 1139.698 L 3595.236 1139.698 Q 3584.526 1139.698 3584.526 1128.358 L 3584.526 1128.358 L 3584.526 1100.638 L 3584.526 1100.638 Q 3584.526 1054.018 3539.166 1054.018 L 3539.166 1054.018 L 3484.356 1054.018 L 3484.356 1054.018 Q 3438.996 1054.018 3438.996 1100.638 L 3438.996 1100.638 L 3438.996 1305.388 L 3438.996 1305.388 Q 3438.996 1352.008 3484.356 1352.008 L 3484.356 1352.008 L 3539.166 1352.008 L 3539.166 1352.008 Q 3584.526 1352.008 3584.526 1305.388 L 3584.526 1305.388 L 3584.526 1277.668 L 3584.526 1277.668 Q 3584.526 1266.328 3595.236 1266.328 L 3595.236 1266.328 L 3634.926 1266.328 L 3634.926 1266.328 Q 3646.266 1266.328 3646.266 1277.668 L 3646.266 1277.668 L 3646.266 1307.908 L 3646.266 1307.908 Q 3646.266 1353.898 3620.436 1379.728 L 3620.436 1379.728 L 3620.436 1379.728 Q 3594.606 1405.558 3548.616 1405.558 Z  M 3824.556 1352.008 L 3824.556 1352.008 L 3879.366 1352.008 L 3879.366 1352.008 Q 3925.356 1352.008 3925.356 1305.388 L 3925.356 1305.388 L 3925.356 1100.638 L 3925.356 1100.638 Q 3925.356 1054.018 3879.366 1054.018 L 3879.366 1054.018 L 3824.556 1054.018 L 3824.556 1054.018 Q 3779.196 1054.018 3779.196 1100.638 L 3779.196 1100.638 L 3779.196 1305.388 L 3779.196 1305.388 Q 3779.196 1352.008 3824.556 1352.008 Z  M 3888.816 1405.558 L 3888.816 1405.558 L 3815.736 1405.558 L 3815.736 1405.558 Q 3769.116 1405.558 3743.601 1379.728 L 3743.601 1379.728 L 3743.601 1379.728 Q 3718.086 1353.898 3718.086 1307.908 L 3718.086 1307.908 L 3718.086 1098.118 L 3718.086 1098.118 Q 3718.086 1051.498 3743.601 1025.983 L 3743.601 1025.983 L 3743.601 1025.983 Q 3769.116 1000.468 3815.736 1000.468 L 3815.736 1000.468 L 3888.816 1000.468 L 3888.816 1000.468 Q 3935.436 1000.468 3961.266 1025.983 L 3961.266 1025.983 L 3961.266 1025.983 Q 3987.096 1051.498 3987.096 1098.118 L 3987.096 1098.118 L 3987.096 1307.908 L 3987.096 1307.908 Q 3987.096 1353.898 3961.266 1379.728 L 3961.266 1379.728 L 3961.266 1379.728 Q 3935.436 1405.558 3888.816 1405.558 Z  M 4283.826 1000.468 L 4283.826 1000.468 L 4323.516 1000.468 L 4323.516 1000.468 Q 4334.856 1000.468 4334.856 1010.548 L 4334.856 1010.548 L 4334.856 1307.908 L 4334.856 1307.908 Q 4334.856 1353.898 4308.711 1379.728 L 4308.711 1379.728 L 4308.711 1379.728 Q 4282.566 1405.558 4236.576 1405.558 L 4236.576 1405.558 L 4166.646 1405.558 L 4166.646 1405.558 Q 4120.656 1405.558 4094.826 1379.728 L 4094.826 1379.728 L 4094.826 1379.728 Q 4068.996 1353.898 4068.996 1307.908 L 4068.996 1307.908 L 4068.996 1011.178 L 4068.996 1011.178 Q 4068.996 1000.468 4079.706 1000.468 L 4079.706 1000.468 L 4119.396 1000.468 L 4119.396 1000.468 Q 4130.106 1000.468 4130.106 1011.178 L 4130.106 1011.178 L 4130.106 1305.388 L 4130.106 1305.388 Q 4130.106 1352.008 4175.466 1352.008 L 4175.466 1352.008 L 4227.126 1352.008 L 4227.126 1352.008 Q 4273.116 1352.008 4273.116 1305.388 L 4273.116 1305.388 L 4273.116 1011.178 L 4273.116 1011.178 Q 4273.116 1000.468 4283.826 1000.468 Z  M 4472.826 1405.558 L 4472.826 1405.558 L 4433.766 1405.558 L 4433.766 1405.558 Q 4423.056 1405.558 4423.056 1394.848 L 4423.056 1394.848 L 4423.056 1011.178 L 4423.056 1011.178 Q 4423.056 1000.468 4433.766 1000.468 L 4433.766 1000.468 L 4469.046 1000.468 L 4469.046 1000.468 Q 4479.126 1000.468 4482.906 1007.398 L 4482.906 1007.398 L 4635.366 1281.448 L 4637.886 1281.448 L 4637.886 1011.178 L 4637.886 1011.178 Q 4637.886 1000.468 4648.596 1000.468 L 4648.596 1000.468 L 4687.656 1000.468 L 4687.656 1000.468 Q 4698.366 1000.468 4698.366 1011.178 L 4698.366 1011.178 L 4698.366 1394.848 L 4698.366 1394.848 Q 4698.366 1405.558 4687.656 1405.558 L 4687.656 1405.558 L 4653.636 1405.558 L 4653.636 1405.558 Q 4643.556 1405.558 4637.256 1395.478 L 4637.256 1395.478 L 4486.056 1124.578 L 4483.536 1124.578 L 4483.536 1394.848 L 4483.536 1394.848 Q 4483.536 1405.558 4472.826 1405.558 Z  M 4901.226 1405.558 L 4901.226 1405.558 L 4861.536 1405.558 L 4861.536 1405.558 Q 4850.196 1405.558 4850.196 1394.848 L 4850.196 1394.848 L 4850.196 1060.318 L 4850.196 1060.318 Q 4850.196 1054.018 4843.896 1054.018 L 4843.896 1054.018 L 4764.516 1054.018 L 4764.516 1054.018 Q 4753.176 1054.018 4753.176 1043.308 L 4753.176 1043.308 L 4753.176 1011.178 L 4753.176 1011.178 Q 4753.176 1000.468 4764.516 1000.468 L 4764.516 1000.468 L 4998.246 1000.468 L 4998.246 1000.468 Q 5009.586 1000.468 5009.586 1011.178 L 5009.586 1011.178 L 5009.586 1043.308 L 5009.586 1043.308 Q 5009.586 1054.018 4998.246 1054.018 L 4998.246 1054.018 L 4918.866 1054.018 L 4918.866 1054.018 Q 4911.936 1054.018 4911.936 1060.318 L 4911.936 1060.318 L 4911.936 1394.848 L 4911.936 1394.848 Q 4911.936 1405.558 4901.226 1405.558 Z  M 5056.206 1307.278 L 5056.206 1307.278 L 5056.206 1290.898 L 5056.206 1290.898 Q 5056.206 1280.188 5066.916 1280.188 L 5066.916 1280.188 L 5107.236 1280.188 L 5107.236 1280.188 Q 5117.946 1280.188 5117.946 1290.898 L 5117.946 1290.898 L 5117.946 1302.238 L 5117.946 1302.238 Q 5117.946 1328.698 5129.601 1340.353 L 5129.601 1340.353 L 5129.601 1340.353 Q 5141.256 1352.008 5168.346 1352.008 L 5168.346 1352.008 L 5211.816 1352.008 L 5211.816 1352.008 Q 5238.906 1352.008 5250.876 1339.723 L 5250.876 1339.723 L 5250.876 1339.723 Q 5262.846 1327.438 5262.846 1299.718 L 5262.846 1299.718 L 5262.846 1285.228 L 5262.846 1285.228 Q 5262.846 1265.068 5247.411 1253.413 L 5247.411 1253.413 L 5247.411 1253.413 Q 5231.976 1241.758 5209.296 1238.293 L 5209.296 1238.293 L 5209.296 1238.293 Q 5186.616 1234.828 5159.526 1228.528 L 5159.526 1228.528 L 5159.526 1228.528 Q 5132.436 1222.228 5109.756 1214.038 L 5109.756 1214.038 L 5109.756 1214.038 Q 5087.076 1205.848 5071.641 1183.168 L 5071.641 1183.168 L 5071.641 1183.168 Q 5056.206 1160.488 5056.206 1125.208 L 5056.206 1125.208 L 5056.206 1098.748 L 5056.206 1098.748 Q 5056.206 1052.758 5082.351 1026.613 L 5082.351 1026.613 L 5082.351 1026.613 Q 5108.496 1000.468 5154.486 1000.468 L 5154.486 1000.468 L 5221.266 1000.468 L 5221.266 1000.468 Q 5267.886 1000.468 5294.031 1026.613 L 5294.031 1026.613 L 5294.031 1026.613 Q 5320.176 1052.758 5320.176 1098.748 L 5320.176 1098.748 L 5320.176 1112.608 L 5320.176 1112.608 Q 5320.176 1123.318 5309.466 1123.318 L 5309.466 1123.318 L 5269.146 1123.318 L 5269.146 1123.318 Q 5258.436 1123.318 5258.436 1112.608 L 5258.436 1112.608 L 5258.436 1104.418 L 5258.436 1104.418 Q 5258.436 1077.328 5246.781 1065.673 L 5246.781 1065.673 L 5246.781 1065.673 Q 5235.126 1054.018 5208.036 1054.018 L 5208.036 1054.018 L 5168.346 1054.018 L 5168.346 1054.018 Q 5141.256 1054.018 5129.601 1066.303 L 5129.601 1066.303 L 5129.601 1066.303 Q 5117.946 1078.588 5117.946 1108.198 L 5117.946 1108.198 L 5117.946 1127.728 L 5117.946 1127.728 Q 5117.946 1156.078 5158.896 1166.158 L 5158.896 1166.158 L 5158.896 1166.158 Q 5177.166 1170.568 5198.901 1173.718 L 5198.901 1173.718 L 5198.901 1173.718 Q 5220.636 1176.868 5242.686 1183.168 L 5242.686 1183.168 L 5242.686 1183.168 Q 5264.736 1189.468 5283.006 1199.863 L 5283.006 1199.863 L 5283.006 1199.863 Q 5301.276 1210.258 5312.616 1231.363 L 5312.616 1231.363 L 5312.616 1231.363 Q 5323.956 1252.468 5323.956 1282.708 L 5323.956 1282.708 L 5323.956 1307.278 L 5323.956 1307.278 Q 5323.956 1353.268 5297.811 1379.413 L 5297.811 1379.413 L 5297.811 1379.413 Q 5271.666 1405.558 5225.676 1405.558 L 5225.676 1405.558 L 5155.116 1405.558 L 5155.116 1405.558 Q 5109.126 1405.558 5082.666 1379.413 L 5082.666 1379.413 L 5082.666 1379.413 Q 5056.206 1353.268 5056.206 1307.278 Z " fill-rule="evenodd" fill="rgb(255,255,255)"/><clipPath id="_clipPath_Uxccru3PLpEik2uVSJwClMxcbG1T9wBf"><path d=" M 1968.576 1405.558 L 1968.576 1405.558 L 1764.456 1405.558 L 1764.456 1405.558 Q 1753.746 1405.558 1753.746 1394.848 L 1753.746 1394.848 L 1753.746 1011.178 L 1753.746 1011.178 Q 1753.746 1000.468 1764.456 1000.468 L 1764.456 1000.468 L 1804.146 1000.468 L 1804.146 1000.468 Q 1814.856 1000.468 1814.856 1011.178 L 1814.856 1011.178 L 1814.856 1344.448 L 1814.856 1344.448 Q 1814.856 1350.748 1822.416 1350.748 L 1822.416 1350.748 L 1968.576 1350.748 L 1968.576 1350.748 Q 1979.286 1350.748 1979.286 1362.088 L 1979.286 1362.088 L 1979.286 1394.848 L 1979.286 1394.848 Q 1979.286 1405.558 1968.576 1405.558 Z  M 2171.436 1405.558 L 2171.436 1405.558 L 2131.116 1405.558 L 2131.116 1405.558 Q 2120.406 1405.558 2120.406 1394.848 L 2120.406 1394.848 L 2120.406 1255.618 L 2002.596 1011.808 L 2002.596 1011.808 Q 2000.076 1006.768 2002.596 1003.618 L 2002.596 1003.618 L 2002.596 1003.618 Q 2005.116 1000.468 2009.526 1000.468 L 2009.526 1000.468 L 2059.926 1000.468 L 2059.926 1000.468 Q 2068.116 1000.468 2072.526 1011.178 L 2072.526 1011.178 L 2150.016 1184.428 L 2153.796 1184.428 L 2230.026 1011.178 L 2230.026 1011.178 Q 2233.806 1000.468 2242.626 1000.468 L 2242.626 1000.468 L 2293.026 1000.468 L 2293.026 1000.468 Q 2298.066 1000.468 2300.271 1003.618 L 2300.271 1003.618 L 2300.271 1003.618 Q 2302.476 1006.768 2299.956 1011.808 L 2299.956 1011.808 L 2182.146 1255.618 L 2182.146 1394.848 L 2182.146 1394.848 Q 2182.146 1405.558 2171.436 1405.558 Z  M 2407.686 1405.558 L 2407.686 1405.558 L 2367.996 1405.558 L 2367.996 1405.558 Q 2357.286 1405.558 2357.286 1394.848 L 2357.286 1394.848 L 2357.286 1011.178 L 2357.286 1011.178 Q 2357.286 1000.468 2367.996 1000.468 L 2367.996 1000.468 L 2515.416 1000.468 L 2515.416 1000.468 Q 2561.406 1000.468 2587.551 1026.613 L 2587.551 1026.613 L 2587.551 1026.613 Q 2613.696 1052.758 2613.696 1098.748 L 2613.696 1098.748 L 2613.696 1151.668 L 2613.696 1151.668 Q 2613.696 1224.118 2553.846 1243.018 L 2553.846 1243.018 L 2553.846 1245.538 L 2623.776 1392.958 L 2623.776 1392.958 Q 2630.706 1405.558 2615.586 1405.558 L 2615.586 1405.558 L 2576.526 1405.558 L 2576.526 1405.558 Q 2561.406 1405.558 2556.996 1394.848 L 2556.996 1394.848 L 2489.586 1249.948 L 2425.956 1249.948 L 2425.956 1249.948 Q 2418.396 1249.948 2418.396 1256.248 L 2418.396 1256.248 L 2418.396 1394.848 L 2418.396 1394.848 Q 2418.396 1405.558 2407.686 1405.558 Z  M 2425.326 1199.548 L 2425.326 1199.548 L 2505.336 1199.548 L 2505.336 1199.548 Q 2551.956 1199.548 2551.956 1153.558 L 2551.956 1153.558 L 2551.956 1100.638 L 2551.956 1100.638 Q 2551.956 1054.018 2505.336 1054.018 L 2505.336 1054.018 L 2425.326 1054.018 L 2425.326 1054.018 Q 2418.396 1054.018 2418.396 1060.318 L 2418.396 1060.318 L 2418.396 1193.248 L 2418.396 1193.248 Q 2418.396 1199.548 2425.326 1199.548 Z  M 2720.796 1405.558 L 2720.796 1405.558 L 2675.436 1405.558 L 2675.436 1405.558 Q 2666.616 1405.558 2669.136 1394.848 L 2669.136 1394.848 L 2778.756 1011.178 L 2778.756 1011.178 Q 2781.906 1000.468 2793.876 1000.468 L 2793.876 1000.468 L 2856.876 1000.468 L 2856.876 1000.468 Q 2869.476 1000.468 2871.996 1011.178 L 2871.996 1011.178 L 2981.616 1394.848 L 2981.616 1394.848 Q 2984.136 1405.558 2974.686 1405.558 L 2974.686 1405.558 L 2929.956 1405.558 L 2929.956 1405.558 Q 2924.286 1405.558 2922.081 1403.353 L 2922.081 1403.353 L 2922.081 1403.353 Q 2919.876 1401.148 2918.616 1394.848 L 2918.616 1394.848 L 2894.676 1312.948 L 2756.076 1312.948 L 2732.136 1394.848 L 2732.136 1394.848 Q 2729.616 1405.558 2720.796 1405.558 Z  M 2826.636 1060.948 L 2824.116 1060.948 L 2768.676 1262.548 L 2882.706 1262.548 L 2826.636 1060.948 Z  M 3208.416 1405.558 L 3208.416 1405.558 L 3135.336 1405.558 L 3135.336 1405.558 Q 3088.716 1405.558 3063.201 1379.728 L 3063.201 1379.728 L 3063.201 1379.728 Q 3037.686 1353.898 3037.686 1307.908 L 3037.686 1307.908 L 3037.686 1098.118 L 3037.686 1098.118 Q 3037.686 1051.498 3063.201 1025.983 L 3063.201 1025.983 L 3063.201 1025.983 Q 3088.716 1000.468 3135.336 1000.468 L 3135.336 1000.468 L 3208.416 1000.468 L 3208.416 1000.468 Q 3254.406 1000.468 3280.236 1025.983 L 3280.236 1025.983 L 3280.236 1025.983 Q 3306.066 1051.498 3306.066 1098.118 L 3306.066 1098.118 L 3306.066 1128.358 L 3306.066 1128.358 Q 3306.066 1139.698 3294.726 1139.698 L 3294.726 1139.698 L 3255.036 1139.698 L 3255.036 1139.698 Q 3244.326 1139.698 3244.326 1128.358 L 3244.326 1128.358 L 3244.326 1100.638 L 3244.326 1100.638 Q 3244.326 1054.018 3198.966 1054.018 L 3198.966 1054.018 L 3144.156 1054.018 L 3144.156 1054.018 Q 3098.796 1054.018 3098.796 1100.638 L 3098.796 1100.638 L 3098.796 1305.388 L 3098.796 1305.388 Q 3098.796 1352.008 3144.156 1352.008 L 3144.156 1352.008 L 3198.966 1352.008 L 3198.966 1352.008 Q 3244.326 1352.008 3244.326 1305.388 L 3244.326 1305.388 L 3244.326 1277.668 L 3244.326 1277.668 Q 3244.326 1266.328 3255.036 1266.328 L 3255.036 1266.328 L 3294.726 1266.328 L 3294.726 1266.328 Q 3306.066 1266.328 3306.066 1277.668 L 3306.066 1277.668 L 3306.066 1307.908 L 3306.066 1307.908 Q 3306.066 1353.898 3280.236 1379.728 L 3280.236 1379.728 L 3280.236 1379.728 Q 3254.406 1405.558 3208.416 1405.558 Z  M 3548.616 1405.558 L 3548.616 1405.558 L 3475.536 1405.558 L 3475.536 1405.558 Q 3428.916 1405.558 3403.401 1379.728 L 3403.401 1379.728 L 3403.401 1379.728 Q 3377.886 1353.898 3377.886 1307.908 L 3377.886 1307.908 L 3377.886 1098.118 L 3377.886 1098.118 Q 3377.886 1051.498 3403.401 1025.983 L 3403.401 1025.983 L 3403.401 1025.983 Q 3428.916 1000.468 3475.536 1000.468 L 3475.536 1000.468 L 3548.616 1000.468 L 3548.616 1000.468 Q 3594.606 1000.468 3620.436 1025.983 L 3620.436 1025.983 L 3620.436 1025.983 Q 3646.266 1051.498 3646.266 1098.118 L 3646.266 1098.118 L 3646.266 1128.358 L 3646.266 1128.358 Q 3646.266 1139.698 3634.926 1139.698 L 3634.926 1139.698 L 3595.236 1139.698 L 3595.236 1139.698 Q 3584.526 1139.698 3584.526 1128.358 L 3584.526 1128.358 L 3584.526 1100.638 L 3584.526 1100.638 Q 3584.526 1054.018 3539.166 1054.018 L 3539.166 1054.018 L 3484.356 1054.018 L 3484.356 1054.018 Q 3438.996 1054.018 3438.996 1100.638 L 3438.996 1100.638 L 3438.996 1305.388 L 3438.996 1305.388 Q 3438.996 1352.008 3484.356 1352.008 L 3484.356 1352.008 L 3539.166 1352.008 L 3539.166 1352.008 Q 3584.526 1352.008 3584.526 1305.388 L 3584.526 1305.388 L 3584.526 1277.668 L 3584.526 1277.668 Q 3584.526 1266.328 3595.236 1266.328 L 3595.236 1266.328 L 3634.926 1266.328 L 3634.926 1266.328 Q 3646.266 1266.328 3646.266 1277.668 L 3646.266 1277.668 L 3646.266 1307.908 L 3646.266 1307.908 Q 3646.266 1353.898 3620.436 1379.728 L 3620.436 1379.728 L 3620.436 1379.728 Q 3594.606 1405.558 3548.616 1405.558 Z  M 3824.556 1352.008 L 3824.556 1352.008 L 3879.366 1352.008 L 3879.366 1352.008 Q 3925.356 1352.008 3925.356 1305.388 L 3925.356 1305.388 L 3925.356 1100.638 L 3925.356 1100.638 Q 3925.356 1054.018 3879.366 1054.018 L 3879.366 1054.018 L 3824.556 1054.018 L 3824.556 1054.018 Q 3779.196 1054.018 3779.196 1100.638 L 3779.196 1100.638 L 3779.196 1305.388 L 3779.196 1305.388 Q 3779.196 1352.008 3824.556 1352.008 Z  M 3888.816 1405.558 L 3888.816 1405.558 L 3815.736 1405.558 L 3815.736 1405.558 Q 3769.116 1405.558 3743.601 1379.728 L 3743.601 1379.728 L 3743.601 1379.728 Q 3718.086 1353.898 3718.086 1307.908 L 3718.086 1307.908 L 3718.086 1098.118 L 3718.086 1098.118 Q 3718.086 1051.498 3743.601 1025.983 L 3743.601 1025.983 L 3743.601 1025.983 Q 3769.116 1000.468 3815.736 1000.468 L 3815.736 1000.468 L 3888.816 1000.468 L 3888.816 1000.468 Q 3935.436 1000.468 3961.266 1025.983 L 3961.266 1025.983 L 3961.266 1025.983 Q 3987.096 1051.498 3987.096 1098.118 L 3987.096 1098.118 L 3987.096 1307.908 L 3987.096 1307.908 Q 3987.096 1353.898 3961.266 1379.728 L 3961.266 1379.728 L 3961.266 1379.728 Q 3935.436 1405.558 3888.816 1405.558 Z  M 4283.826 1000.468 L 4283.826 1000.468 L 4323.516 1000.468 L 4323.516 1000.468 Q 4334.856 1000.468 4334.856 1010.548 L 4334.856 1010.548 L 4334.856 1307.908 L 4334.856 1307.908 Q 4334.856 1353.898 4308.711 1379.728 L 4308.711 1379.728 L 4308.711 1379.728 Q 4282.566 1405.558 4236.576 1405.558 L 4236.576 1405.558 L 4166.646 1405.558 L 4166.646 1405.558 Q 4120.656 1405.558 4094.826 1379.728 L 4094.826 1379.728 L 4094.826 1379.728 Q 4068.996 1353.898 4068.996 1307.908 L 4068.996 1307.908 L 4068.996 1011.178 L 4068.996 1011.178 Q 4068.996 1000.468 4079.706 1000.468 L 4079.706 1000.468 L 4119.396 1000.468 L 4119.396 1000.468 Q 4130.106 1000.468 4130.106 1011.178 L 4130.106 1011.178 L 4130.106 1305.388 L 4130.106 1305.388 Q 4130.106 1352.008 4175.466 1352.008 L 4175.466 1352.008 L 4227.126 1352.008 L 4227.126 1352.008 Q 4273.116 1352.008 4273.116 1305.388 L 4273.116 1305.388 L 4273.116 1011.178 L 4273.116 1011.178 Q 4273.116 1000.468 4283.826 1000.468 Z  M 4472.826 1405.558 L 4472.826 1405.558 L 4433.766 1405.558 L 4433.766 1405.558 Q 4423.056 1405.558 4423.056 1394.848 L 4423.056 1394.848 L 4423.056 1011.178 L 4423.056 1011.178 Q 4423.056 1000.468 4433.766 1000.468 L 4433.766 1000.468 L 4469.046 1000.468 L 4469.046 1000.468 Q 4479.126 1000.468 4482.906 1007.398 L 4482.906 1007.398 L 4635.366 1281.448 L 4637.886 1281.448 L 4637.886 1011.178 L 4637.886 1011.178 Q 4637.886 1000.468 4648.596 1000.468 L 4648.596 1000.468 L 4687.656 1000.468 L 4687.656 1000.468 Q 4698.366 1000.468 4698.366 1011.178 L 4698.366 1011.178 L 4698.366 1394.848 L 4698.366 1394.848 Q 4698.366 1405.558 4687.656 1405.558 L 4687.656 1405.558 L 4653.636 1405.558 L 4653.636 1405.558 Q 4643.556 1405.558 4637.256 1395.478 L 4637.256 1395.478 L 4486.056 1124.578 L 4483.536 1124.578 L 4483.536 1394.848 L 4483.536 1394.848 Q 4483.536 1405.558 4472.826 1405.558 Z  M 4901.226 1405.558 L 4901.226 1405.558 L 4861.536 1405.558 L 4861.536 1405.558 Q 4850.196 1405.558 4850.196 1394.848 L 4850.196 1394.848 L 4850.196 1060.318 L 4850.196 1060.318 Q 4850.196 1054.018 4843.896 1054.018 L 4843.896 1054.018 L 4764.516 1054.018 L 4764.516 1054.018 Q 4753.176 1054.018 4753.176 1043.308 L 4753.176 1043.308 L 4753.176 1011.178 L 4753.176 1011.178 Q 4753.176 1000.468 4764.516 1000.468 L 4764.516 1000.468 L 4998.246 1000.468 L 4998.246 1000.468 Q 5009.586 1000.468 5009.586 1011.178 L 5009.586 1011.178 L 5009.586 1043.308 L 5009.586 1043.308 Q 5009.586 1054.018 4998.246 1054.018 L 4998.246 1054.018 L 4918.866 1054.018 L 4918.866 1054.018 Q 4911.936 1054.018 4911.936 1060.318 L 4911.936 1060.318 L 4911.936 1394.848 L 4911.936 1394.848 Q 4911.936 1405.558 4901.226 1405.558 Z  M 5056.206 1307.278 L 5056.206 1307.278 L 5056.206 1290.898 L 5056.206 1290.898 Q 5056.206 1280.188 5066.916 1280.188 L 5066.916 1280.188 L 5107.236 1280.188 L 5107.236 1280.188 Q 5117.946 1280.188 5117.946 1290.898 L 5117.946 1290.898 L 5117.946 1302.238 L 5117.946 1302.238 Q 5117.946 1328.698 5129.601 1340.353 L 5129.601 1340.353 L 5129.601 1340.353 Q 5141.256 1352.008 5168.346 1352.008 L 5168.346 1352.008 L 5211.816 1352.008 L 5211.816 1352.008 Q 5238.906 1352.008 5250.876 1339.723 L 5250.876 1339.723 L 5250.876 1339.723 Q 5262.846 1327.438 5262.846 1299.718 L 5262.846 1299.718 L 5262.846 1285.228 L 5262.846 1285.228 Q 5262.846 1265.068 5247.411 1253.413 L 5247.411 1253.413 L 5247.411 1253.413 Q 5231.976 1241.758 5209.296 1238.293 L 5209.296 1238.293 L 5209.296 1238.293 Q 5186.616 1234.828 5159.526 1228.528 L 5159.526 1228.528 L 5159.526 1228.528 Q 5132.436 1222.228 5109.756 1214.038 L 5109.756 1214.038 L 5109.756 1214.038 Q 5087.076 1205.848 5071.641 1183.168 L 5071.641 1183.168 L 5071.641 1183.168 Q 5056.206 1160.488 5056.206 1125.208 L 5056.206 1125.208 L 5056.206 1098.748 L 5056.206 1098.748 Q 5056.206 1052.758 5082.351 1026.613 L 5082.351 1026.613 L 5082.351 1026.613 Q 5108.496 1000.468 5154.486 1000.468 L 5154.486 1000.468 L 5221.266 1000.468 L 5221.266 1000.468 Q 5267.886 1000.468 5294.031 1026.613 L 5294.031 1026.613 L 5294.031 1026.613 Q 5320.176 1052.758 5320.176 1098.748 L 5320.176 1098.748 L 5320.176 1112.608 L 5320.176 1112.608 Q 5320.176 1123.318 5309.466 1123.318 L 5309.466 1123.318 L 5269.146 1123.318 L 5269.146 1123.318 Q 5258.436 1123.318 5258.436 1112.608 L 5258.436 1112.608 L 5258.436 1104.418 L 5258.436 1104.418 Q 5258.436 1077.328 5246.781 1065.673 L 5246.781 1065.673 L 5246.781 1065.673 Q 5235.126 1054.018 5208.036 1054.018 L 5208.036 1054.018 L 5168.346 1054.018 L 5168.346 1054.018 Q 5141.256 1054.018 5129.601 1066.303 L 5129.601 1066.303 L 5129.601 1066.303 Q 5117.946 1078.588 5117.946 1108.198 L 5117.946 1108.198 L 5117.946 1127.728 L 5117.946 1127.728 Q 5117.946 1156.078 5158.896 1166.158 L 5158.896 1166.158 L 5158.896 1166.158 Q 5177.166 1170.568 5198.901 1173.718 L 5198.901 1173.718 L 5198.901 1173.718 Q 5220.636 1176.868 5242.686 1183.168 L 5242.686 1183.168 L 5242.686 1183.168 Q 5264.736 1189.468 5283.006 1199.863 L 5283.006 1199.863 L 5283.006 1199.863 Q 5301.276 1210.258 5312.616 1231.363 L 5312.616 1231.363 L 5312.616 1231.363 Q 5323.956 1252.468 5323.956 1282.708 L 5323.956 1282.708 L 5323.956 1307.278 L 5323.956 1307.278 Q 5323.956 1353.268 5297.811 1379.413 L 5297.811 1379.413 L 5297.811 1379.413 Q 5271.666 1405.558 5225.676 1405.558 L 5225.676 1405.558 L 5155.116 1405.558 L 5155.116 1405.558 Q 5109.126 1405.558 5082.666 1379.413 L 5082.666 1379.413 L 5082.666 1379.413 Q 5056.206 1353.268 5056.206 1307.278 Z " fill-rule="evenodd" fill="rgb(255,255,255)"/></clipPath><g clip-path="url(#_clipPath_Uxccru3PLpEik2uVSJwClMxcbG1T9wBf)"><linearGradient id="_lgradient_3" x1="-8.363739061052389%" y1="-69.65345082289038%" x2="67.97853961525317%" y2="82.99786403419364%"><stop offset="0%" stop-opacity="1" style="stop-color:rgb(74,134,232)"/><stop offset="33.04956371238716%" stop-opacity="1" style="stop-color:rgb(134,122,243)"/><stop offset="98.69565217391305%" stop-opacity="1" style="stop-color:rgb(197,110,255)"/></linearGradient><rect x="1696.681" y="381.287" width="3764.834" height="1643.593" transform="matrix(-1,0.029,-0.029,-1,7192.059,2300.289)" fill="url(#_lgradient_3)"/></g></svg>