<?xml version="1.0" standalone="no"?><!-- Generator: Gravit.io --><svg xmlns="http://www.w3.org/2000/svg" xmlns:xlink="http://www.w3.org/1999/xlink" style="isolation:isolate" viewBox="0 0 5950 2406.167" width="5950" height="2406.167"><rect x="0" y="0" width="5950" height="2406.167" transform="matrix(1,0,0,1,0,0)" fill="rgb(12,20,45)"/><g id="Group"><path d=" M 1136.087 659.78 L 958.058 723.568 L 851.204 990.475 L 1026.492 933.531 L 1135.136 1033.444 L 1241.991 766.537 L 1136.087 659.78 Z  M 1155.523 611.233 C 989.549 668.097 911.127 699.352 920.194 704.909 L 779.433 1056.507 L 1008.083 979.512 L 1154.037 1113.198 L 1294.798 761.6 C 1293.075 743.238 1246.671 693.146 1155.523 611.233 Z  M 957.861 1097.369 L 897.421 1117.256 L 921.9 1187.193 L 996.901 1132.311 L 957.861 1097.369 Z  M 975.413 1053.526 L 835.217 1098.996 L 853.763 1149.251 L 848.836 1214.108 L 876.666 1211.314 L 893.731 1257.556 L 953.603 1214.364 L 975.413 1228.598 L 1004.627 1177.555 L 1065.265 1133.811 L 975.413 1053.526 Z  M 1035.742 1749.836 L 1395.485 1650.146 L 1249.934 1568.129 L 1331.598 1419.6 L 1078.572 1489.717 C 995.955 1509.487 961.998 1452.401 1013.679 1341.543 L 1031.488 1297.059 L 827.26 1426.29 L 745.549 1253.786 L 658.9 1470.22 C 596.811 1642.717 808.11 1807.852 1035.742 1749.836 Z  M 745.474 1137.641 L 848.836 1372.396 L 1121.246 1194.508 L 1059.599 1348.493 C 1031.484 1413.296 1025.186 1460.695 1088.929 1454.333 L 1413.098 1364.502 L 1301.669 1553.792 L 1494.361 1657.752 L 1076.874 1773.444 C 746.053 1860.603 539.718 1667.676 616.155 1463.751 L 745.474 1137.641 Z  M 999.329 781.076 C 1014.734 742.597 1065.084 717.083 1111.696 724.137 C 1158.307 731.191 1183.643 768.158 1168.238 806.638 C 1152.832 845.118 1102.482 870.632 1055.871 863.578 C 1009.259 856.524 983.923 819.556 999.329 781.076 Z  M 1043.082 787.802 C 1050.642 769.093 1075.018 756.617 1097.481 759.96 C 1119.945 763.302 1132.044 781.204 1124.484 799.913 C 1116.924 818.622 1092.548 831.097 1070.085 827.755 C 1047.621 824.413 1035.522 806.51 1043.082 787.802 Z " fill-rule="evenodd" fill="rgb(255,255,255)"/><clipPath id="_clipPath_9JKc3wtArE4lOADj5vOKvNmoHsYns0Es"><path d=" M 1136.087 659.78 L 958.058 723.568 L 851.204 990.475 L 1026.492 933.531 L 1135.136 1033.444 L 1241.991 766.537 L 1136.087 659.78 Z  M 1155.523 611.233 C 989.549 668.097 911.127 699.352 920.194 704.909 L 779.433 1056.507 L 1008.083 979.512 L 1154.037 1113.198 L 1294.798 761.6 C 1293.075 743.238 1246.671 693.146 1155.523 611.233 Z  M 957.861 1097.369 L 897.421 1117.256 L 921.9 1187.193 L 996.901 1132.311 L 957.861 1097.369 Z  M 975.413 1053.526 L 835.217 1098.996 L 853.763 1149.251 L 848.836 1214.108 L 876.666 1211.314 L 893.731 1257.556 L 953.603 1214.364 L 975.413 1228.598 L 1004.627 1177.555 L 1065.265 1133.811 L 975.413 1053.526 Z  M 1035.742 1749.836 L 1395.485 1650.146 L 1249.934 1568.129 L 1331.598 1419.6 L 1078.572 1489.717 C 995.955 1509.487 961.998 1452.401 1013.679 1341.543 L 1031.488 1297.059 L 827.26 1426.29 L 745.549 1253.786 L 658.9 1470.22 C 596.811 1642.717 808.11 1807.852 1035.742 1749.836 Z  M 745.474 1137.641 L 848.836 1372.396 L 1121.246 1194.508 L 1059.599 1348.493 C 1031.484 1413.296 1025.186 1460.695 1088.929 1454.333 L 1413.098 1364.502 L 1301.669 1553.792 L 1494.361 1657.752 L 1076.874 1773.444 C 746.053 1860.603 539.718 1667.676 616.155 1463.751 L 745.474 1137.641 Z  M 999.329 781.076 C 1014.734 742.597 1065.084 717.083 1111.696 724.137 C 1158.307 731.191 1183.643 768.158 1168.238 806.638 C 1152.832 845.118 1102.482 870.632 1055.871 863.578 C 1009.259 856.524 983.923 819.556 999.329 781.076 Z  M 1043.082 787.802 C 1050.642 769.093 1075.018 756.617 1097.481 759.96 C 1119.945 763.302 1132.044 781.204 1124.484 799.913 C 1116.924 818.622 1092.548 831.097 1070.085 827.755 C 1047.621 824.413 1035.522 806.51 1043.082 787.802 Z " fill-rule="evenodd" fill="rgb(255,255,255)"/></clipPath><g clip-path="url(#_clipPath_9JKc3wtArE4lOADj5vOKvNmoHsYns0Es)"><linearGradient id="_lgradient_4" x1="13.39515411192401%" y1="78.11663434776356%" x2="69.83674166188835%" y2="11.389722534272128%"><stop offset="0%" stop-opacity="1" style="stop-color:rgb(74,134,232)"/><stop offset="38.69565217391304%" stop-opacity="1" style="stop-color:rgb(134,122,243)"/><stop offset="98.69565217391305%" stop-opacity="1" style="stop-color:rgb(197,110,255)"/></linearGradient><rect x="489.731" y="635.256" width="967.569" height="1187.575" transform="matrix(0.964,-0.267,0.267,0.964,-292.861,304.613)" fill="url(#_lgradient_4)"/></g><path d=" M 1969.176 1405.628 L 1969.176 1405.628 L 1765.056 1405.628 L 1765.056 1405.628 Q 1754.346 1405.628 1754.346 1394.918 L 1754.346 1394.918 L 1754.346 1011.248 L 1754.346 1011.248 Q 1754.346 1000.538 1765.056 1000.538 L 1765.056 1000.538 L 1804.746 1000.538 L 1804.746 1000.538 Q 1815.456 1000.538 1815.456 1011.248 L 1815.456 1011.248 L 1815.456 1344.518 L 1815.456 1344.518 Q 1815.456 1350.818 1823.016 1350.818 L 1823.016 1350.818 L 1969.176 1350.818 L 1969.176 1350.818 Q 1979.886 1350.818 1979.886 1362.158 L 1979.886 1362.158 L 1979.886 1394.918 L 1979.886 1394.918 Q 1979.886 1405.628 1969.176 1405.628 Z  M 2059.896 1405.628 L 2059.896 1405.628 L 2014.536 1405.628 L 2014.536 1405.628 Q 2005.716 1405.628 2008.236 1394.918 L 2008.236 1394.918 L 2117.856 1011.248 L 2117.856 1011.248 Q 2121.006 1000.538 2132.976 1000.538 L 2132.976 1000.538 L 2195.976 1000.538 L 2195.976 1000.538 Q 2208.576 1000.538 2211.096 1011.248 L 2211.096 1011.248 L 2320.716 1394.918 L 2320.716 1394.918 Q 2323.236 1405.628 2313.786 1405.628 L 2313.786 1405.628 L 2269.056 1405.628 L 2269.056 1405.628 Q 2263.386 1405.628 2261.181 1403.423 L 2261.181 1403.423 L 2261.181 1403.423 Q 2258.976 1401.218 2257.716 1394.918 L 2257.716 1394.918 L 2233.776 1313.018 L 2095.176 1313.018 L 2071.236 1394.918 L 2071.236 1394.918 Q 2068.716 1405.628 2059.896 1405.628 Z  M 2165.736 1061.018 L 2163.216 1061.018 L 2107.776 1262.618 L 2221.806 1262.618 L 2165.736 1061.018 Z  M 2433.486 1405.628 L 2433.486 1405.628 L 2393.796 1405.628 L 2393.796 1405.628 Q 2383.086 1405.628 2383.086 1394.918 L 2383.086 1394.918 L 2383.086 1011.248 L 2383.086 1011.248 Q 2383.086 1000.538 2393.796 1000.538 L 2393.796 1000.538 L 2541.216 1000.538 L 2541.216 1000.538 Q 2587.206 1000.538 2613.351 1026.683 L 2613.351 1026.683 L 2613.351 1026.683 Q 2639.496 1052.828 2639.496 1098.818 L 2639.496 1098.818 L 2639.496 1151.738 L 2639.496 1151.738 Q 2639.496 1224.188 2579.646 1243.088 L 2579.646 1243.088 L 2579.646 1245.608 L 2649.576 1393.028 L 2649.576 1393.028 Q 2656.506 1405.628 2641.386 1405.628 L 2641.386 1405.628 L 2602.326 1405.628 L 2602.326 1405.628 Q 2587.206 1405.628 2582.796 1394.918 L 2582.796 1394.918 L 2515.386 1250.018 L 2451.756 1250.018 L 2451.756 1250.018 Q 2444.196 1250.018 2444.196 1256.318 L 2444.196 1256.318 L 2444.196 1394.918 L 2444.196 1394.918 Q 2444.196 1405.628 2433.486 1405.628 Z  M 2451.126 1199.618 L 2451.126 1199.618 L 2531.136 1199.618 L 2531.136 1199.618 Q 2577.756 1199.618 2577.756 1153.628 L 2577.756 1153.628 L 2577.756 1100.708 L 2577.756 1100.708 Q 2577.756 1054.088 2531.136 1054.088 L 2531.136 1054.088 L 2451.126 1054.088 L 2451.126 1054.088 Q 2444.196 1054.088 2444.196 1060.388 L 2444.196 1060.388 L 2444.196 1193.318 L 2444.196 1193.318 Q 2444.196 1199.618 2451.126 1199.618 Z  M 2746.596 1405.628 L 2746.596 1405.628 L 2701.236 1405.628 L 2701.236 1405.628 Q 2692.416 1405.628 2694.936 1394.918 L 2694.936 1394.918 L 2804.556 1011.248 L 2804.556 1011.248 Q 2807.706 1000.538 2819.676 1000.538 L 2819.676 1000.538 L 2882.676 1000.538 L 2882.676 1000.538 Q 2895.276 1000.538 2897.796 1011.248 L 2897.796 1011.248 L 3007.416 1394.918 L 3007.416 1394.918 Q 3009.936 1405.628 3000.486 1405.628 L 3000.486 1405.628 L 2955.756 1405.628 L 2955.756 1405.628 Q 2950.086 1405.628 2947.881 1403.423 L 2947.881 1403.423 L 2947.881 1403.423 Q 2945.676 1401.218 2944.416 1394.918 L 2944.416 1394.918 L 2920.476 1313.018 L 2781.876 1313.018 L 2757.936 1394.918 L 2757.936 1394.918 Q 2755.416 1405.628 2746.596 1405.628 Z  M 2852.436 1061.018 L 2849.916 1061.018 L 2794.476 1262.618 L 2908.506 1262.618 L 2852.436 1061.018 Z  M 3234.216 1405.628 L 3234.216 1405.628 L 3161.136 1405.628 L 3161.136 1405.628 Q 3114.516 1405.628 3089.001 1379.798 L 3089.001 1379.798 L 3089.001 1379.798 Q 3063.486 1353.968 3063.486 1307.978 L 3063.486 1307.978 L 3063.486 1098.188 L 3063.486 1098.188 Q 3063.486 1051.568 3089.001 1026.053 L 3089.001 1026.053 L 3089.001 1026.053 Q 3114.516 1000.538 3161.136 1000.538 L 3161.136 1000.538 L 3234.216 1000.538 L 3234.216 1000.538 Q 3280.206 1000.538 3306.036 1026.053 L 3306.036 1026.053 L 3306.036 1026.053 Q 3331.866 1051.568 3331.866 1098.188 L 3331.866 1098.188 L 3331.866 1128.428 L 3331.866 1128.428 Q 3331.866 1139.768 3320.526 1139.768 L 3320.526 1139.768 L 3280.836 1139.768 L 3280.836 1139.768 Q 3270.126 1139.768 3270.126 1128.428 L 3270.126 1128.428 L 3270.126 1100.708 L 3270.126 1100.708 Q 3270.126 1054.088 3224.766 1054.088 L 3224.766 1054.088 L 3169.956 1054.088 L 3169.956 1054.088 Q 3124.596 1054.088 3124.596 1100.708 L 3124.596 1100.708 L 3124.596 1305.458 L 3124.596 1305.458 Q 3124.596 1352.078 3169.956 1352.078 L 3169.956 1352.078 L 3224.766 1352.078 L 3224.766 1352.078 Q 3270.126 1352.078 3270.126 1305.458 L 3270.126 1305.458 L 3270.126 1277.738 L 3270.126 1277.738 Q 3270.126 1266.398 3280.836 1266.398 L 3280.836 1266.398 L 3320.526 1266.398 L 3320.526 1266.398 Q 3331.866 1266.398 3331.866 1277.738 L 3331.866 1277.738 L 3331.866 1307.978 L 3331.866 1307.978 Q 3331.866 1353.968 3306.036 1379.798 L 3306.036 1379.798 L 3306.036 1379.798 Q 3280.206 1405.628 3234.216 1405.628 Z  M 3574.416 1405.628 L 3574.416 1405.628 L 3501.336 1405.628 L 3501.336 1405.628 Q 3454.716 1405.628 3429.201 1379.798 L 3429.201 1379.798 L 3429.201 1379.798 Q 3403.686 1353.968 3403.686 1307.978 L 3403.686 1307.978 L 3403.686 1098.188 L 3403.686 1098.188 Q 3403.686 1051.568 3429.201 1026.053 L 3429.201 1026.053 L 3429.201 1026.053 Q 3454.716 1000.538 3501.336 1000.538 L 3501.336 1000.538 L 3574.416 1000.538 L 3574.416 1000.538 Q 3620.406 1000.538 3646.236 1026.053 L 3646.236 1026.053 L 3646.236 1026.053 Q 3672.066 1051.568 3672.066 1098.188 L 3672.066 1098.188 L 3672.066 1128.428 L 3672.066 1128.428 Q 3672.066 1139.768 3660.726 1139.768 L 3660.726 1139.768 L 3621.036 1139.768 L 3621.036 1139.768 Q 3610.326 1139.768 3610.326 1128.428 L 3610.326 1128.428 L 3610.326 1100.708 L 3610.326 1100.708 Q 3610.326 1054.088 3564.966 1054.088 L 3564.966 1054.088 L 3510.156 1054.088 L 3510.156 1054.088 Q 3464.796 1054.088 3464.796 1100.708 L 3464.796 1100.708 L 3464.796 1305.458 L 3464.796 1305.458 Q 3464.796 1352.078 3510.156 1352.078 L 3510.156 1352.078 L 3564.966 1352.078 L 3564.966 1352.078 Q 3610.326 1352.078 3610.326 1305.458 L 3610.326 1305.458 L 3610.326 1277.738 L 3610.326 1277.738 Q 3610.326 1266.398 3621.036 1266.398 L 3621.036 1266.398 L 3660.726 1266.398 L 3660.726 1266.398 Q 3672.066 1266.398 3672.066 1277.738 L 3672.066 1277.738 L 3672.066 1307.978 L 3672.066 1307.978 Q 3672.066 1353.968 3646.236 1379.798 L 3646.236 1379.798 L 3646.236 1379.798 Q 3620.406 1405.628 3574.416 1405.628 Z  M 3850.356 1352.078 L 3850.356 1352.078 L 3905.166 1352.078 L 3905.166 1352.078 Q 3951.156 1352.078 3951.156 1305.458 L 3951.156 1305.458 L 3951.156 1100.708 L 3951.156 1100.708 Q 3951.156 1054.088 3905.166 1054.088 L 3905.166 1054.088 L 3850.356 1054.088 L 3850.356 1054.088 Q 3804.996 1054.088 3804.996 1100.708 L 3804.996 1100.708 L 3804.996 1305.458 L 3804.996 1305.458 Q 3804.996 1352.078 3850.356 1352.078 Z  M 3914.616 1405.628 L 3914.616 1405.628 L 3841.536 1405.628 L 3841.536 1405.628 Q 3794.916 1405.628 3769.401 1379.798 L 3769.401 1379.798 L 3769.401 1379.798 Q 3743.886 1353.968 3743.886 1307.978 L 3743.886 1307.978 L 3743.886 1098.188 L 3743.886 1098.188 Q 3743.886 1051.568 3769.401 1026.053 L 3769.401 1026.053 L 3769.401 1026.053 Q 3794.916 1000.538 3841.536 1000.538 L 3841.536 1000.538 L 3914.616 1000.538 L 3914.616 1000.538 Q 3961.236 1000.538 3987.066 1026.053 L 3987.066 1026.053 L 3987.066 1026.053 Q 4012.896 1051.568 4012.896 1098.188 L 4012.896 1098.188 L 4012.896 1307.978 L 4012.896 1307.978 Q 4012.896 1353.968 3987.066 1379.798 L 3987.066 1379.798 L 3987.066 1379.798 Q 3961.236 1405.628 3914.616 1405.628 Z  M 4309.626 1000.538 L 4309.626 1000.538 L 4349.316 1000.538 L 4349.316 1000.538 Q 4360.656 1000.538 4360.656 1010.618 L 4360.656 1010.618 L 4360.656 1307.978 L 4360.656 1307.978 Q 4360.656 1353.968 4334.511 1379.798 L 4334.511 1379.798 L 4334.511 1379.798 Q 4308.366 1405.628 4262.376 1405.628 L 4262.376 1405.628 L 4192.446 1405.628 L 4192.446 1405.628 Q 4146.456 1405.628 4120.626 1379.798 L 4120.626 1379.798 L 4120.626 1379.798 Q 4094.796 1353.968 4094.796 1307.978 L 4094.796 1307.978 L 4094.796 1011.248 L 4094.796 1011.248 Q 4094.796 1000.538 4105.506 1000.538 L 4105.506 1000.538 L 4145.196 1000.538 L 4145.196 1000.538 Q 4155.906 1000.538 4155.906 1011.248 L 4155.906 1011.248 L 4155.906 1305.458 L 4155.906 1305.458 Q 4155.906 1352.078 4201.266 1352.078 L 4201.266 1352.078 L 4252.926 1352.078 L 4252.926 1352.078 Q 4298.916 1352.078 4298.916 1305.458 L 4298.916 1305.458 L 4298.916 1011.248 L 4298.916 1011.248 Q 4298.916 1000.538 4309.626 1000.538 Z  M 4498.626 1405.628 L 4498.626 1405.628 L 4459.566 1405.628 L 4459.566 1405.628 Q 4448.856 1405.628 4448.856 1394.918 L 4448.856 1394.918 L 4448.856 1011.248 L 4448.856 1011.248 Q 4448.856 1000.538 4459.566 1000.538 L 4459.566 1000.538 L 4494.846 1000.538 L 4494.846 1000.538 Q 4504.926 1000.538 4508.706 1007.468 L 4508.706 1007.468 L 4661.166 1281.518 L 4663.686 1281.518 L 4663.686 1011.248 L 4663.686 1011.248 Q 4663.686 1000.538 4674.396 1000.538 L 4674.396 1000.538 L 4713.456 1000.538 L 4713.456 1000.538 Q 4724.166 1000.538 4724.166 1011.248 L 4724.166 1011.248 L 4724.166 1394.918 L 4724.166 1394.918 Q 4724.166 1405.628 4713.456 1405.628 L 4713.456 1405.628 L 4679.436 1405.628 L 4679.436 1405.628 Q 4669.356 1405.628 4663.056 1395.548 L 4663.056 1395.548 L 4511.856 1124.648 L 4509.336 1124.648 L 4509.336 1394.918 L 4509.336 1394.918 Q 4509.336 1405.628 4498.626 1405.628 Z  M 4927.026 1405.628 L 4927.026 1405.628 L 4887.336 1405.628 L 4887.336 1405.628 Q 4875.996 1405.628 4875.996 1394.918 L 4875.996 1394.918 L 4875.996 1060.388 L 4875.996 1060.388 Q 4875.996 1054.088 4869.696 1054.088 L 4869.696 1054.088 L 4790.316 1054.088 L 4790.316 1054.088 Q 4778.976 1054.088 4778.976 1043.378 L 4778.976 1043.378 L 4778.976 1011.248 L 4778.976 1011.248 Q 4778.976 1000.538 4790.316 1000.538 L 4790.316 1000.538 L 5024.046 1000.538 L 5024.046 1000.538 Q 5035.386 1000.538 5035.386 1011.248 L 5035.386 1011.248 L 5035.386 1043.378 L 5035.386 1043.378 Q 5035.386 1054.088 5024.046 1054.088 L 5024.046 1054.088 L 4944.666 1054.088 L 4944.666 1054.088 Q 4937.736 1054.088 4937.736 1060.388 L 4937.736 1060.388 L 4937.736 1394.918 L 4937.736 1394.918 Q 4937.736 1405.628 4927.026 1405.628 Z  M 5082.006 1307.348 L 5082.006 1307.348 L 5082.006 1290.968 L 5082.006 1290.968 Q 5082.006 1280.258 5092.716 1280.258 L 5092.716 1280.258 L 5133.036 1280.258 L 5133.036 1280.258 Q 5143.746 1280.258 5143.746 1290.968 L 5143.746 1290.968 L 5143.746 1302.308 L 5143.746 1302.308 Q 5143.746 1328.768 5155.401 1340.423 L 5155.401 1340.423 L 5155.401 1340.423 Q 5167.056 1352.078 5194.146 1352.078 L 5194.146 1352.078 L 5237.616 1352.078 L 5237.616 1352.078 Q 5264.706 1352.078 5276.676 1339.793 L 5276.676 1339.793 L 5276.676 1339.793 Q 5288.646 1327.508 5288.646 1299.788 L 5288.646 1299.788 L 5288.646 1285.298 L 5288.646 1285.298 Q 5288.646 1265.138 5273.211 1253.483 L 5273.211 1253.483 L 5273.211 1253.483 Q 5257.776 1241.828 5235.096 1238.363 L 5235.096 1238.363 L 5235.096 1238.363 Q 5212.416 1234.898 5185.326 1228.598 L 5185.326 1228.598 L 5185.326 1228.598 Q 5158.236 1222.298 5135.556 1214.108 L 5135.556 1214.108 L 5135.556 1214.108 Q 5112.876 1205.918 5097.441 1183.238 L 5097.441 1183.238 L 5097.441 1183.238 Q 5082.006 1160.558 5082.006 1125.278 L 5082.006 1125.278 L 5082.006 1098.818 L 5082.006 1098.818 Q 5082.006 1052.828 5108.151 1026.683 L 5108.151 1026.683 L 5108.151 1026.683 Q 5134.296 1000.538 5180.286 1000.538 L 5180.286 1000.538 L 5247.066 1000.538 L 5247.066 1000.538 Q 5293.686 1000.538 5319.831 1026.683 L 5319.831 1026.683 L 5319.831 1026.683 Q 5345.976 1052.828 5345.976 1098.818 L 5345.976 1098.818 L 5345.976 1112.678 L 5345.976 1112.678 Q 5345.976 1123.388 5335.266 1123.388 L 5335.266 1123.388 L 5294.946 1123.388 L 5294.946 1123.388 Q 5284.236 1123.388 5284.236 1112.678 L 5284.236 1112.678 L 5284.236 1104.488 L 5284.236 1104.488 Q 5284.236 1077.398 5272.581 1065.743 L 5272.581 1065.743 L 5272.581 1065.743 Q 5260.926 1054.088 5233.836 1054.088 L 5233.836 1054.088 L 5194.146 1054.088 L 5194.146 1054.088 Q 5167.056 1054.088 5155.401 1066.373 L 5155.401 1066.373 L 5155.401 1066.373 Q 5143.746 1078.658 5143.746 1108.268 L 5143.746 1108.268 L 5143.746 1127.798 L 5143.746 1127.798 Q 5143.746 1156.148 5184.696 1166.228 L 5184.696 1166.228 L 5184.696 1166.228 Q 5202.966 1170.638 5224.701 1173.788 L 5224.701 1173.788 L 5224.701 1173.788 Q 5246.436 1176.938 5268.486 1183.238 L 5268.486 1183.238 L 5268.486 1183.238 Q 5290.536 1189.538 5308.806 1199.933 L 5308.806 1199.933 L 5308.806 1199.933 Q 5327.076 1210.328 5338.416 1231.433 L 5338.416 1231.433 L 5338.416 1231.433 Q 5349.756 1252.538 5349.756 1282.778 L 5349.756 1282.778 L 5349.756 1307.348 L 5349.756 1307.348 Q 5349.756 1353.338 5323.611 1379.483 L 5323.611 1379.483 L 5323.611 1379.483 Q 5297.466 1405.628 5251.476 1405.628 L 5251.476 1405.628 L 5180.916 1405.628 L 5180.916 1405.628 Q 5134.926 1405.628 5108.466 1379.483 L 5108.466 1379.483 L 5108.466 1379.483 Q 5082.006 1353.338 5082.006 1307.348 Z " fill-rule="evenodd" fill="rgb(255,255,255)"/><clipPath id="_clipPath_eQMsMmHGYDA4HxZFMXHlCdz8I0lkBe34"><path d=" M 1969.176 1405.628 L 1969.176 1405.628 L 1765.056 1405.628 L 1765.056 1405.628 Q 1754.346 1405.628 1754.346 1394.918 L 1754.346 1394.918 L 1754.346 1011.248 L 1754.346 1011.248 Q 1754.346 1000.538 1765.056 1000.538 L 1765.056 1000.538 L 1804.746 1000.538 L 1804.746 1000.538 Q 1815.456 1000.538 1815.456 1011.248 L 1815.456 1011.248 L 1815.456 1344.518 L 1815.456 1344.518 Q 1815.456 1350.818 1823.016 1350.818 L 1823.016 1350.818 L 1969.176 1350.818 L 1969.176 1350.818 Q 1979.886 1350.818 1979.886 1362.158 L 1979.886 1362.158 L 1979.886 1394.918 L 1979.886 1394.918 Q 1979.886 1405.628 1969.176 1405.628 Z  M 2059.896 1405.628 L 2059.896 1405.628 L 2014.536 1405.628 L 2014.536 1405.628 Q 2005.716 1405.628 2008.236 1394.918 L 2008.236 1394.918 L 2117.856 1011.248 L 2117.856 1011.248 Q 2121.006 1000.538 2132.976 1000.538 L 2132.976 1000.538 L 2195.976 1000.538 L 2195.976 1000.538 Q 2208.576 1000.538 2211.096 1011.248 L 2211.096 1011.248 L 2320.716 1394.918 L 2320.716 1394.918 Q 2323.236 1405.628 2313.786 1405.628 L 2313.786 1405.628 L 2269.056 1405.628 L 2269.056 1405.628 Q 2263.386 1405.628 2261.181 1403.423 L 2261.181 1403.423 L 2261.181 1403.423 Q 2258.976 1401.218 2257.716 1394.918 L 2257.716 1394.918 L 2233.776 1313.018 L 2095.176 1313.018 L 2071.236 1394.918 L 2071.236 1394.918 Q 2068.716 1405.628 2059.896 1405.628 Z  M 2165.736 1061.018 L 2163.216 1061.018 L 2107.776 1262.618 L 2221.806 1262.618 L 2165.736 1061.018 Z  M 2433.486 1405.628 L 2433.486 1405.628 L 2393.796 1405.628 L 2393.796 1405.628 Q 2383.086 1405.628 2383.086 1394.918 L 2383.086 1394.918 L 2383.086 1011.248 L 2383.086 1011.248 Q 2383.086 1000.538 2393.796 1000.538 L 2393.796 1000.538 L 2541.216 1000.538 L 2541.216 1000.538 Q 2587.206 1000.538 2613.351 1026.683 L 2613.351 1026.683 L 2613.351 1026.683 Q 2639.496 1052.828 2639.496 1098.818 L 2639.496 1098.818 L 2639.496 1151.738 L 2639.496 1151.738 Q 2639.496 1224.188 2579.646 1243.088 L 2579.646 1243.088 L 2579.646 1245.608 L 2649.576 1393.028 L 2649.576 1393.028 Q 2656.506 1405.628 2641.386 1405.628 L 2641.386 1405.628 L 2602.326 1405.628 L 2602.326 1405.628 Q 2587.206 1405.628 2582.796 1394.918 L 2582.796 1394.918 L 2515.386 1250.018 L 2451.756 1250.018 L 2451.756 1250.018 Q 2444.196 1250.018 2444.196 1256.318 L 2444.196 1256.318 L 2444.196 1394.918 L 2444.196 1394.918 Q 2444.196 1405.628 2433.486 1405.628 Z  M 2451.126 1199.618 L 2451.126 1199.618 L 2531.136 1199.618 L 2531.136 1199.618 Q 2577.756 1199.618 2577.756 1153.628 L 2577.756 1153.628 L 2577.756 1100.708 L 2577.756 1100.708 Q 2577.756 1054.088 2531.136 1054.088 L 2531.136 1054.088 L 2451.126 1054.088 L 2451.126 1054.088 Q 2444.196 1054.088 2444.196 1060.388 L 2444.196 1060.388 L 2444.196 1193.318 L 2444.196 1193.318 Q 2444.196 1199.618 2451.126 1199.618 Z  M 2746.596 1405.628 L 2746.596 1405.628 L 2701.236 1405.628 L 2701.236 1405.628 Q 2692.416 1405.628 2694.936 1394.918 L 2694.936 1394.918 L 2804.556 1011.248 L 2804.556 1011.248 Q 2807.706 1000.538 2819.676 1000.538 L 2819.676 1000.538 L 2882.676 1000.538 L 2882.676 1000.538 Q 2895.276 1000.538 2897.796 1011.248 L 2897.796 1011.248 L 3007.416 1394.918 L 3007.416 1394.918 Q 3009.936 1405.628 3000.486 1405.628 L 3000.486 1405.628 L 2955.756 1405.628 L 2955.756 1405.628 Q 2950.086 1405.628 2947.881 1403.423 L 2947.881 1403.423 L 2947.881 1403.423 Q 2945.676 1401.218 2944.416 1394.918 L 2944.416 1394.918 L 2920.476 1313.018 L 2781.876 1313.018 L 2757.936 1394.918 L 2757.936 1394.918 Q 2755.416 1405.628 2746.596 1405.628 Z  M 2852.436 1061.018 L 2849.916 1061.018 L 2794.476 1262.618 L 2908.506 1262.618 L 2852.436 1061.018 Z  M 3234.216 1405.628 L 3234.216 1405.628 L 3161.136 1405.628 L 3161.136 1405.628 Q 3114.516 1405.628 3089.001 1379.798 L 3089.001 1379.798 L 3089.001 1379.798 Q 3063.486 1353.968 3063.486 1307.978 L 3063.486 1307.978 L 3063.486 1098.188 L 3063.486 1098.188 Q 3063.486 1051.568 3089.001 1026.053 L 3089.001 1026.053 L 3089.001 1026.053 Q 3114.516 1000.538 3161.136 1000.538 L 3161.136 1000.538 L 3234.216 1000.538 L 3234.216 1000.538 Q 3280.206 1000.538 3306.036 1026.053 L 3306.036 1026.053 L 3306.036 1026.053 Q 3331.866 1051.568 3331.866 1098.188 L 3331.866 1098.188 L 3331.866 1128.428 L 3331.866 1128.428 Q 3331.866 1139.768 3320.526 1139.768 L 3320.526 1139.768 L 3280.836 1139.768 L 3280.836 1139.768 Q 3270.126 1139.768 3270.126 1128.428 L 3270.126 1128.428 L 3270.126 1100.708 L 3270.126 1100.708 Q 3270.126 1054.088 3224.766 1054.088 L 3224.766 1054.088 L 3169.956 1054.088 L 3169.956 1054.088 Q 3124.596 1054.088 3124.596 1100.708 L 3124.596 1100.708 L 3124.596 1305.458 L 3124.596 1305.458 Q 3124.596 1352.078 3169.956 1352.078 L 3169.956 1352.078 L 3224.766 1352.078 L 3224.766 1352.078 Q 3270.126 1352.078 3270.126 1305.458 L 3270.126 1305.458 L 3270.126 1277.738 L 3270.126 1277.738 Q 3270.126 1266.398 3280.836 1266.398 L 3280.836 1266.398 L 3320.526 1266.398 L 3320.526 1266.398 Q 3331.866 1266.398 3331.866 1277.738 L 3331.866 1277.738 L 3331.866 1307.978 L 3331.866 1307.978 Q 3331.866 1353.968 3306.036 1379.798 L 3306.036 1379.798 L 3306.036 1379.798 Q 3280.206 1405.628 3234.216 1405.628 Z  M 3574.416 1405.628 L 3574.416 1405.628 L 3501.336 1405.628 L 3501.336 1405.628 Q 3454.716 1405.628 3429.201 1379.798 L 3429.201 1379.798 L 3429.201 1379.798 Q 3403.686 1353.968 3403.686 1307.978 L 3403.686 1307.978 L 3403.686 1098.188 L 3403.686 1098.188 Q 3403.686 1051.568 3429.201 1026.053 L 3429.201 1026.053 L 3429.201 1026.053 Q 3454.716 1000.538 3501.336 1000.538 L 3501.336 1000.538 L 3574.416 1000.538 L 3574.416 1000.538 Q 3620.406 1000.538 3646.236 1026.053 L 3646.236 1026.053 L 3646.236 1026.053 Q 3672.066 1051.568 3672.066 1098.188 L 3672.066 1098.188 L 3672.066 1128.428 L 3672.066 1128.428 Q 3672.066 1139.768 3660.726 1139.768 L 3660.726 1139.768 L 3621.036 1139.768 L 3621.036 1139.768 Q 3610.326 1139.768 3610.326 1128.428 L 3610.326 1128.428 L 3610.326 1100.708 L 3610.326 1100.708 Q 3610.326 1054.088 3564.966 1054.088 L 3564.966 1054.088 L 3510.156 1054.088 L 3510.156 1054.088 Q 3464.796 1054.088 3464.796 1100.708 L 3464.796 1100.708 L 3464.796 1305.458 L 3464.796 1305.458 Q 3464.796 1352.078 3510.156 1352.078 L 3510.156 1352.078 L 3564.966 1352.078 L 3564.966 1352.078 Q 3610.326 1352.078 3610.326 1305.458 L 3610.326 1305.458 L 3610.326 1277.738 L 3610.326 1277.738 Q 3610.326 1266.398 3621.036 1266.398 L 3621.036 1266.398 L 3660.726 1266.398 L 3660.726 1266.398 Q 3672.066 1266.398 3672.066 1277.738 L 3672.066 1277.738 L 3672.066 1307.978 L 3672.066 1307.978 Q 3672.066 1353.968 3646.236 1379.798 L 3646.236 1379.798 L 3646.236 1379.798 Q 3620.406 1405.628 3574.416 1405.628 Z  M 3850.356 1352.078 L 3850.356 1352.078 L 3905.166 1352.078 L 3905.166 1352.078 Q 3951.156 1352.078 3951.156 1305.458 L 3951.156 1305.458 L 3951.156 1100.708 L 3951.156 1100.708 Q 3951.156 1054.088 3905.166 1054.088 L 3905.166 1054.088 L 3850.356 1054.088 L 3850.356 1054.088 Q 3804.996 1054.088 3804.996 1100.708 L 3804.996 1100.708 L 3804.996 1305.458 L 3804.996 1305.458 Q 3804.996 1352.078 3850.356 1352.078 Z  M 3914.616 1405.628 L 3914.616 1405.628 L 3841.536 1405.628 L 3841.536 1405.628 Q 3794.916 1405.628 3769.401 1379.798 L 3769.401 1379.798 L 3769.401 1379.798 Q 3743.886 1353.968 3743.886 1307.978 L 3743.886 1307.978 L 3743.886 1098.188 L 3743.886 1098.188 Q 3743.886 1051.568 3769.401 1026.053 L 3769.401 1026.053 L 3769.401 1026.053 Q 3794.916 1000.538 3841.536 1000.538 L 3841.536 1000.538 L 3914.616 1000.538 L 3914.616 1000.538 Q 3961.236 1000.538 3987.066 1026.053 L 3987.066 1026.053 L 3987.066 1026.053 Q 4012.896 1051.568 4012.896 1098.188 L 4012.896 1098.188 L 4012.896 1307.978 L 4012.896 1307.978 Q 4012.896 1353.968 3987.066 1379.798 L 3987.066 1379.798 L 3987.066 1379.798 Q 3961.236 1405.628 3914.616 1405.628 Z  M 4309.626 1000.538 L 4309.626 1000.538 L 4349.316 1000.538 L 4349.316 1000.538 Q 4360.656 1000.538 4360.656 1010.618 L 4360.656 1010.618 L 4360.656 1307.978 L 4360.656 1307.978 Q 4360.656 1353.968 4334.511 1379.798 L 4334.511 1379.798 L 4334.511 1379.798 Q 4308.366 1405.628 4262.376 1405.628 L 4262.376 1405.628 L 4192.446 1405.628 L 4192.446 1405.628 Q 4146.456 1405.628 4120.626 1379.798 L 4120.626 1379.798 L 4120.626 1379.798 Q 4094.796 1353.968 4094.796 1307.978 L 4094.796 1307.978 L 4094.796 1011.248 L 4094.796 1011.248 Q 4094.796 1000.538 4105.506 1000.538 L 4105.506 1000.538 L 4145.196 1000.538 L 4145.196 1000.538 Q 4155.906 1000.538 4155.906 1011.248 L 4155.906 1011.248 L 4155.906 1305.458 L 4155.906 1305.458 Q 4155.906 1352.078 4201.266 1352.078 L 4201.266 1352.078 L 4252.926 1352.078 L 4252.926 1352.078 Q 4298.916 1352.078 4298.916 1305.458 L 4298.916 1305.458 L 4298.916 1011.248 L 4298.916 1011.248 Q 4298.916 1000.538 4309.626 1000.538 Z  M 4498.626 1405.628 L 4498.626 1405.628 L 4459.566 1405.628 L 4459.566 1405.628 Q 4448.856 1405.628 4448.856 1394.918 L 4448.856 1394.918 L 4448.856 1011.248 L 4448.856 1011.248 Q 4448.856 1000.538 4459.566 1000.538 L 4459.566 1000.538 L 4494.846 1000.538 L 4494.846 1000.538 Q 4504.926 1000.538 4508.706 1007.468 L 4508.706 1007.468 L 4661.166 1281.518 L 4663.686 1281.518 L 4663.686 1011.248 L 4663.686 1011.248 Q 4663.686 1000.538 4674.396 1000.538 L 4674.396 1000.538 L 4713.456 1000.538 L 4713.456 1000.538 Q 4724.166 1000.538 4724.166 1011.248 L 4724.166 1011.248 L 4724.166 1394.918 L 4724.166 1394.918 Q 4724.166 1405.628 4713.456 1405.628 L 4713.456 1405.628 L 4679.436 1405.628 L 4679.436 1405.628 Q 4669.356 1405.628 4663.056 1395.548 L 4663.056 1395.548 L 4511.856 1124.648 L 4509.336 1124.648 L 4509.336 1394.918 L 4509.336 1394.918 Q 4509.336 1405.628 4498.626 1405.628 Z  M 4927.026 1405.628 L 4927.026 1405.628 L 4887.336 1405.628 L 4887.336 1405.628 Q 4875.996 1405.628 4875.996 1394.918 L 4875.996 1394.918 L 4875.996 1060.388 L 4875.996 1060.388 Q 4875.996 1054.088 4869.696 1054.088 L 4869.696 1054.088 L 4790.316 1054.088 L 4790.316 1054.088 Q 4778.976 1054.088 4778.976 1043.378 L 4778.976 1043.378 L 4778.976 1011.248 L 4778.976 1011.248 Q 4778.976 1000.538 4790.316 1000.538 L 4790.316 1000.538 L 5024.046 1000.538 L 5024.046 1000.538 Q 5035.386 1000.538 5035.386 1011.248 L 5035.386 1011.248 L 5035.386 1043.378 L 5035.386 1043.378 Q 5035.386 1054.088 5024.046 1054.088 L 5024.046 1054.088 L 4944.666 1054.088 L 4944.666 1054.088 Q 4937.736 1054.088 4937.736 1060.388 L 4937.736 1060.388 L 4937.736 1394.918 L 4937.736 1394.918 Q 4937.736 1405.628 4927.026 1405.628 Z  M 5082.006 1307.348 L 5082.006 1307.348 L 5082.006 1290.968 L 5082.006 1290.968 Q 5082.006 1280.258 5092.716 1280.258 L 5092.716 1280.258 L 5133.036 1280.258 L 5133.036 1280.258 Q 5143.746 1280.258 5143.746 1290.968 L 5143.746 1290.968 L 5143.746 1302.308 L 5143.746 1302.308 Q 5143.746 1328.768 5155.401 1340.423 L 5155.401 1340.423 L 5155.401 1340.423 Q 5167.056 1352.078 5194.146 1352.078 L 5194.146 1352.078 L 5237.616 1352.078 L 5237.616 1352.078 Q 5264.706 1352.078 5276.676 1339.793 L 5276.676 1339.793 L 5276.676 1339.793 Q 5288.646 1327.508 5288.646 1299.788 L 5288.646 1299.788 L 5288.646 1285.298 L 5288.646 1285.298 Q 5288.646 1265.138 5273.211 1253.483 L 5273.211 1253.483 L 5273.211 1253.483 Q 5257.776 1241.828 5235.096 1238.363 L 5235.096 1238.363 L 5235.096 1238.363 Q 5212.416 1234.898 5185.326 1228.598 L 5185.326 1228.598 L 5185.326 1228.598 Q 5158.236 1222.298 5135.556 1214.108 L 5135.556 1214.108 L 5135.556 1214.108 Q 5112.876 1205.918 5097.441 1183.238 L 5097.441 1183.238 L 5097.441 1183.238 Q 5082.006 1160.558 5082.006 1125.278 L 5082.006 1125.278 L 5082.006 1098.818 L 5082.006 1098.818 Q 5082.006 1052.828 5108.151 1026.683 L 5108.151 1026.683 L 5108.151 1026.683 Q 5134.296 1000.538 5180.286 1000.538 L 5180.286 1000.538 L 5247.066 1000.538 L 5247.066 1000.538 Q 5293.686 1000.538 5319.831 1026.683 L 5319.831 1026.683 L 5319.831 1026.683 Q 5345.976 1052.828 5345.976 1098.818 L 5345.976 1098.818 L 5345.976 1112.678 L 5345.976 1112.678 Q 5345.976 1123.388 5335.266 1123.388 L 5335.266 1123.388 L 5294.946 1123.388 L 5294.946 1123.388 Q 5284.236 1123.388 5284.236 1112.678 L 5284.236 1112.678 L 5284.236 1104.488 L 5284.236 1104.488 Q 5284.236 1077.398 5272.581 1065.743 L 5272.581 1065.743 L 5272.581 1065.743 Q 5260.926 1054.088 5233.836 1054.088 L 5233.836 1054.088 L 5194.146 1054.088 L 5194.146 1054.088 Q 5167.056 1054.088 5155.401 1066.373 L 5155.401 1066.373 L 5155.401 1066.373 Q 5143.746 1078.658 5143.746 1108.268 L 5143.746 1108.268 L 5143.746 1127.798 L 5143.746 1127.798 Q 5143.746 1156.148 5184.696 1166.228 L 5184.696 1166.228 L 5184.696 1166.228 Q 5202.966 1170.638 5224.701 1173.788 L 5224.701 1173.788 L 5224.701 1173.788 Q 5246.436 1176.938 5268.486 1183.238 L 5268.486 1183.238 L 5268.486 1183.238 Q 5290.536 1189.538 5308.806 1199.933 L 5308.806 1199.933 L 5308.806 1199.933 Q 5327.076 1210.328 5338.416 1231.433 L 5338.416 1231.433 L 5338.416 1231.433 Q 5349.756 1252.538 5349.756 1282.778 L 5349.756 1282.778 L 5349.756 1307.348 L 5349.756 1307.348 Q 5349.756 1353.338 5323.611 1379.483 L 5323.611 1379.483 L 5323.611 1379.483 Q 5297.466 1405.628 5251.476 1405.628 L 5251.476 1405.628 L 5180.916 1405.628 L 5180.916 1405.628 Q 5134.926 1405.628 5108.466 1379.483 L 5108.466 1379.483 L 5108.466 1379.483 Q 5082.006 1353.338 5082.006 1307.348 Z " fill-rule="evenodd" fill="rgb(255,255,255)"/></clipPath><g clip-path="url(#_clipPath_eQMsMmHGYDA4HxZFMXHlCdz8I0lkBe34)"/></g></svg>