<?xml version="1.0" standalone="no"?><!-- Generator: Gravit.io --><svg xmlns="http://www.w3.org/2000/svg" xmlns:xlink="http://www.w3.org/1999/xlink" style="isolation:isolate" viewBox="73.001 73 394.005 394" width="394.005" height="394"><g opacity="0"><rect x="73.001" y="73" width="394.005" height="394" transform="matrix(1,0,0,1,0,0)" fill="rgb(12,20,45)"/></g><path d=" M 298.758 112.744 C 254.659 127.853 233.822 136.158 236.231 137.634 L 198.83 231.054 L 259.583 210.597 L 298.363 246.117 L 335.764 152.697 C 335.306 147.818 322.976 134.509 298.758 112.744 Z  M 257.257 157.872 C 261.35 147.648 274.728 140.869 287.113 142.743 C 299.498 144.617 306.23 154.44 302.136 164.664 C 298.043 174.888 284.665 181.667 272.28 179.793 C 259.896 177.919 253.164 168.096 257.257 157.872 Z  M 250.903 230.262 L 213.652 242.344 L 218.58 255.697 L 217.271 272.929 L 224.665 272.187 L 229.2 284.473 L 245.108 272.997 L 250.903 276.779 L 258.665 263.217 L 274.776 251.594 L 250.903 230.262 Z  M 189.807 252.612 L 217.271 314.987 L 289.651 267.722 L 273.271 308.635 C 265.801 325.854 264.127 338.448 281.064 336.758 L 367.196 312.889 L 337.589 363.184 L 388.788 390.806 L 277.861 421.546 C 189.961 444.704 135.138 393.443 155.447 339.26 L 189.807 252.612 Z " fill-rule="evenodd" fill="rgb(255,255,255)"/><clipPath id="_clipPath_0nGyYXyIu71rJ3sMvXdlZ113nhGBLLVv"><path d=" M 298.758 112.744 C 254.659 127.853 233.822 136.158 236.231 137.634 L 198.83 231.054 L 259.583 210.597 L 298.363 246.117 L 335.764 152.697 C 335.306 147.818 322.976 134.509 298.758 112.744 Z  M 257.257 157.872 C 261.35 147.648 274.728 140.869 287.113 142.743 C 299.498 144.617 306.23 154.44 302.136 164.664 C 298.043 174.888 284.665 181.667 272.28 179.793 C 259.896 177.919 253.164 168.096 257.257 157.872 Z  M 250.903 230.262 L 213.652 242.344 L 218.58 255.697 L 217.271 272.929 L 224.665 272.187 L 229.2 284.473 L 245.108 272.997 L 250.903 276.779 L 258.665 263.217 L 274.776 251.594 L 250.903 230.262 Z  M 189.807 252.612 L 217.271 314.987 L 289.651 267.722 L 273.271 308.635 C 265.801 325.854 264.127 338.448 281.064 336.758 L 367.196 312.889 L 337.589 363.184 L 388.788 390.806 L 277.861 421.546 C 189.961 444.704 135.138 393.443 155.447 339.26 L 189.807 252.612 Z " fill-rule="evenodd" fill="rgb(255,255,255)"/></clipPath><g clip-path="url(#_clipPath_0nGyYXyIu71rJ3sMvXdlZ113nhGBLLVv)"><linearGradient id="_lgradient_21" x1="13.39515411192401%" y1="78.11663434776356%" x2="69.83674166188835%" y2="11.389722534272128%"><stop offset="0%" stop-opacity="1" style="stop-color:rgb(74,134,232)"/><stop offset="38.69565217391304%" stop-opacity="1" style="stop-color:rgb(134,122,243)"/><stop offset="98.69565217391305%" stop-opacity="1" style="stop-color:rgb(197,110,255)"/></linearGradient><rect x="121.856" y="119.128" width="257.084" height="315.541" transform="matrix(0.964,-0.267,0.267,0.964,-64.852,76.925)" fill="url(#_lgradient_21)"/></g></svg>