<?xml version="1.0" standalone="no"?><!-- Generator: Gravit.io --><svg xmlns="http://www.w3.org/2000/svg" xmlns:xlink="http://www.w3.org/1999/xlink" style="isolation:isolate" viewBox="0 0 2084.946 2084.917" width="2084.946" height="2084.917"><g opacity="0"><rect x="0" y="0" width="2084.946" height="2084.917" transform="matrix(1,0,0,1,0,0)" fill="rgb(12,20,45)"/></g><path d=" M 1150.693 450.608 C 984.719 507.472 906.297 538.727 915.364 544.284 L 774.603 895.882 L 1003.253 818.887 L 1149.207 952.573 L 1289.968 600.975 C 1288.245 582.613 1241.841 532.521 1150.693 450.608 Z  M 994.499 620.451 C 1009.904 581.972 1060.254 556.458 1106.866 563.512 C 1153.477 570.566 1178.813 607.533 1163.408 646.013 C 1148.002 684.493 1097.653 710.007 1051.041 702.953 C 1004.429 695.899 979.094 658.931 994.499 620.451 Z  M 970.584 892.901 L 830.387 938.371 L 848.933 988.626 L 844.007 1053.483 L 871.836 1050.689 L 888.901 1096.931 L 948.773 1053.739 L 970.584 1067.973 L 999.798 1016.93 L 1060.435 973.186 L 970.584 892.901 Z  M 740.644 977.016 L 844.007 1211.771 L 1116.416 1033.883 L 1054.769 1187.868 C 1026.654 1252.671 1020.356 1300.07 1084.099 1293.708 L 1408.268 1203.877 L 1296.839 1393.167 L 1489.532 1497.127 L 1072.044 1612.819 C 741.223 1699.978 534.888 1507.051 611.325 1303.126 L 740.644 977.016 Z " fill-rule="evenodd" fill="rgb(255,255,255)"/><clipPath id="_clipPath_gSOII96v2RdN2Yb2u0ubzAdMAsUE7t19"><path d=" M 1150.693 450.608 C 984.719 507.472 906.297 538.727 915.364 544.284 L 774.603 895.882 L 1003.253 818.887 L 1149.207 952.573 L 1289.968 600.975 C 1288.245 582.613 1241.841 532.521 1150.693 450.608 Z  M 994.499 620.451 C 1009.904 581.972 1060.254 556.458 1106.866 563.512 C 1153.477 570.566 1178.813 607.533 1163.408 646.013 C 1148.002 684.493 1097.653 710.007 1051.041 702.953 C 1004.429 695.899 979.094 658.931 994.499 620.451 Z  M 970.584 892.901 L 830.387 938.371 L 848.933 988.626 L 844.007 1053.483 L 871.836 1050.689 L 888.901 1096.931 L 948.773 1053.739 L 970.584 1067.973 L 999.798 1016.93 L 1060.435 973.186 L 970.584 892.901 Z  M 740.644 977.016 L 844.007 1211.771 L 1116.416 1033.883 L 1054.769 1187.868 C 1026.654 1252.671 1020.356 1300.07 1084.099 1293.708 L 1408.268 1203.877 L 1296.839 1393.167 L 1489.532 1497.127 L 1072.044 1612.819 C 741.223 1699.978 534.888 1507.051 611.325 1303.126 L 740.644 977.016 Z " fill-rule="evenodd" fill="rgb(255,255,255)"/></clipPath><g clip-path="url(#_clipPath_gSOII96v2RdN2Yb2u0ubzAdMAsUE7t19)"><linearGradient id="_lgradient_7" x1="13.39515411192401%" y1="78.11663434776356%" x2="69.83674166188835%" y2="11.389722534272128%"><stop offset="0%" stop-opacity="1" style="stop-color:rgb(74,134,232)"/><stop offset="38.69565217391304%" stop-opacity="1" style="stop-color:rgb(134,122,243)"/><stop offset="98.69565217391305%" stop-opacity="1" style="stop-color:rgb(197,110,255)"/></linearGradient><rect x="484.902" y="474.631" width="967.569" height="1187.575" transform="matrix(0.964,-0.267,0.267,0.964,-250.141,297.49)" fill="url(#_lgradient_7)"/></g></svg>