<?xml version="1.0" standalone="no"?><!-- Generator: Gravit.io --><svg xmlns="http://www.w3.org/2000/svg" xmlns:xlink="http://www.w3.org/1999/xlink" style="isolation:isolate" viewBox="-420.833 -187.5 4733.333 1333.333" width="4733.333" height="1333.333"><rect x="-420.833" y="-187.5" width="4733.333" height="1333.333" transform="matrix(1,0,0,1,0,0)" fill="rgb(12,20,45)"/><g id="Group"><path d=" M 69.971 151.591 L -12.851 211.282 L -12.851 397.52 L 69.971 342.604 L 150.704 397.52 L 150.704 211.282 L 69.971 151.591 Z  M 69.971 117.716 C -7.809 171.652 -43.606 200.023 -37.473 202.776 L -37.473 448.108 L 69.971 374.688 L 178.311 448.108 L 178.311 202.776 C 173.383 190.867 137.287 162.532 69.971 117.716 Z " fill-rule="evenodd" fill="rgb(255,255,255)" vector-effect="non-scaling-stroke" stroke-width="1" stroke="rgb(0,0,0)" stroke-linejoin="miter" stroke-linecap="square" stroke-miterlimit="3"/><path d=" M 69.971 434.827 L 41.468 453.928 L 69.971 497.503 L 98.772 453.928 L 69.971 434.827 Z  M 69.971 404.235 L 3.714 448.108 L 69.971 546.599 L 136.229 448.108 L 69.971 404.235 Z " fill-rule="evenodd" fill="rgb(255,255,255)" vector-effect="non-scaling-stroke" stroke-width="1" stroke="rgb(0,0,0)" stroke-linejoin="miter" stroke-linecap="square" stroke-miterlimit="3"/><path d=" M 178.311 812.077 L 454.235 812.077 L 373.651 731.717 L 454.235 649.119 L 228.004 649.119 C 167.119 649.716 149.808 618.676 151.86 563.163 L 151.86 532.124 L 69.038 637.479 L -12.851 532.124 L -12.851 683.143 C -11.06 787.006 19.383 813.271 178.311 812.077 Z  M -38.146 455.719 L 69.038 599.874 L 178.311 455.719 L 178.311 563.163 C 179.206 600.769 192.637 623.601 228.004 623.601 L 519 623.601 L 414.242 731.717 L 519 840.617 L 178.311 840.617 C 11.324 838.938 -37.026 808.495 -37.473 683.143 L -38.146 455.719 Z " fill-rule="evenodd" fill="rgb(255,255,255)" vector-effect="non-scaling-stroke" stroke-width="1" stroke="rgb(0,0,0)" stroke-linejoin="miter" stroke-linecap="square" stroke-miterlimit="3"/><path d=" M 22.069 245.008 C 22.069 218.158 43.867 196.36 70.717 196.36 C 97.567 196.36 119.366 218.158 119.366 245.008 C 119.366 271.858 97.567 293.657 70.717 293.657 C 43.867 293.657 22.069 271.858 22.069 245.008 Z  M 48.93 244.71 C 48.93 232.52 58.692 222.624 70.717 222.624 C 82.742 222.624 92.505 232.52 92.505 244.71 C 92.505 256.899 82.742 266.795 70.717 266.795 C 58.692 266.795 48.93 256.899 48.93 244.71 Z " fill-rule="evenodd" fill="rgb(255,255,255)" vector-effect="non-scaling-stroke" stroke-width="1" stroke="rgb(0,0,0)" stroke-linejoin="miter" stroke-linecap="butt" stroke-miterlimit="3"/></g><g transform="matrix(1,0,0,1,691.167,77.227)"><text transform="matrix(1,0,0,1,0,585.9)" style="font-family:&quot;Rajdhani&quot;;font-weight:600;font-size:630px;font-style:normal;fill:#ffffff;stroke:none;">Laraccounts</text></g></svg>