<?xml version="1.0" standalone="no"?><!-- Generator: Gravit.io --><svg xmlns="http://www.w3.org/2000/svg" xmlns:xlink="http://www.w3.org/1999/xlink" style="isolation:isolate" viewBox="41.832 0 3891.437 1039.54" width="3891.437" height="1039.54"><g opacity="0"><rect x="41.832" y="0" width="3891.437" height="1039.54" transform="matrix(1,0,0,1,0,0)" fill="rgb(12,20,45)"/></g><path d=" M 417.276 722.315 L 417.276 722.315 L 213.156 722.315 L 213.156 722.315 Q 202.446 722.315 202.446 711.605 L 202.446 711.605 L 202.446 327.935 L 202.446 327.935 Q 202.446 317.225 213.156 317.225 L 213.156 317.225 L 252.846 317.225 L 252.846 317.225 Q 263.556 317.225 263.556 327.935 L 263.556 327.935 L 263.556 661.205 L 263.556 661.205 Q 263.556 667.505 271.116 667.505 L 271.116 667.505 L 417.276 667.505 L 417.276 667.505 Q 427.986 667.505 427.986 678.845 L 427.986 678.845 L 427.986 711.605 L 427.986 711.605 Q 427.986 722.315 417.276 722.315 Z  M 620.136 722.315 L 620.136 722.315 L 579.816 722.315 L 579.816 722.315 Q 569.106 722.315 569.106 711.605 L 569.106 711.605 L 569.106 572.375 L 451.296 328.565 L 451.296 328.565 Q 448.776 323.525 451.296 320.375 L 451.296 320.375 L 451.296 320.375 Q 453.816 317.225 458.226 317.225 L 458.226 317.225 L 508.626 317.225 L 508.626 317.225 Q 516.816 317.225 521.226 327.935 L 521.226 327.935 L 598.716 501.185 L 602.496 501.185 L 678.726 327.935 L 678.726 327.935 Q 682.506 317.225 691.326 317.225 L 691.326 317.225 L 741.726 317.225 L 741.726 317.225 Q 746.766 317.225 748.971 320.375 L 748.971 320.375 L 748.971 320.375 Q 751.176 323.525 748.656 328.565 L 748.656 328.565 L 630.846 572.375 L 630.846 711.605 L 630.846 711.605 Q 630.846 722.315 620.136 722.315 Z  M 856.386 722.315 L 856.386 722.315 L 816.696 722.315 L 816.696 722.315 Q 805.986 722.315 805.986 711.605 L 805.986 711.605 L 805.986 327.935 L 805.986 327.935 Q 805.986 317.225 816.696 317.225 L 816.696 317.225 L 964.116 317.225 L 964.116 317.225 Q 1010.106 317.225 1036.251 343.37 L 1036.251 343.37 L 1036.251 343.37 Q 1062.396 369.515 1062.396 415.505 L 1062.396 415.505 L 1062.396 468.425 L 1062.396 468.425 Q 1062.396 540.875 1002.546 559.775 L 1002.546 559.775 L 1002.546 562.295 L 1072.476 709.715 L 1072.476 709.715 Q 1079.406 722.315 1064.286 722.315 L 1064.286 722.315 L 1025.226 722.315 L 1025.226 722.315 Q 1010.106 722.315 1005.696 711.605 L 1005.696 711.605 L 938.286 566.705 L 874.656 566.705 L 874.656 566.705 Q 867.096 566.705 867.096 573.005 L 867.096 573.005 L 867.096 711.605 L 867.096 711.605 Q 867.096 722.315 856.386 722.315 Z  M 874.026 516.305 L 874.026 516.305 L 954.036 516.305 L 954.036 516.305 Q 1000.656 516.305 1000.656 470.315 L 1000.656 470.315 L 1000.656 417.395 L 1000.656 417.395 Q 1000.656 370.775 954.036 370.775 L 954.036 370.775 L 874.026 370.775 L 874.026 370.775 Q 867.096 370.775 867.096 377.075 L 867.096 377.075 L 867.096 510.005 L 867.096 510.005 Q 867.096 516.305 874.026 516.305 Z  M 1169.496 722.315 L 1169.496 722.315 L 1124.136 722.315 L 1124.136 722.315 Q 1115.316 722.315 1117.836 711.605 L 1117.836 711.605 L 1227.456 327.935 L 1227.456 327.935 Q 1230.606 317.225 1242.576 317.225 L 1242.576 317.225 L 1305.576 317.225 L 1305.576 317.225 Q 1318.176 317.225 1320.696 327.935 L 1320.696 327.935 L 1430.316 711.605 L 1430.316 711.605 Q 1432.836 722.315 1423.386 722.315 L 1423.386 722.315 L 1378.656 722.315 L 1378.656 722.315 Q 1372.986 722.315 1370.781 720.11 L 1370.781 720.11 L 1370.781 720.11 Q 1368.576 717.905 1367.316 711.605 L 1367.316 711.605 L 1343.376 629.705 L 1204.776 629.705 L 1180.836 711.605 L 1180.836 711.605 Q 1178.316 722.315 1169.496 722.315 Z  M 1275.336 377.705 L 1272.816 377.705 L 1217.376 579.305 L 1331.406 579.305 L 1275.336 377.705 Z  M 1657.116 722.315 L 1657.116 722.315 L 1584.036 722.315 L 1584.036 722.315 Q 1537.416 722.315 1511.901 696.485 L 1511.901 696.485 L 1511.901 696.485 Q 1486.386 670.655 1486.386 624.665 L 1486.386 624.665 L 1486.386 414.875 L 1486.386 414.875 Q 1486.386 368.255 1511.901 342.74 L 1511.901 342.74 L 1511.901 342.74 Q 1537.416 317.225 1584.036 317.225 L 1584.036 317.225 L 1657.116 317.225 L 1657.116 317.225 Q 1703.106 317.225 1728.936 342.74 L 1728.936 342.74 L 1728.936 342.74 Q 1754.766 368.255 1754.766 414.875 L 1754.766 414.875 L 1754.766 445.115 L 1754.766 445.115 Q 1754.766 456.455 1743.426 456.455 L 1743.426 456.455 L 1703.736 456.455 L 1703.736 456.455 Q 1693.026 456.455 1693.026 445.115 L 1693.026 445.115 L 1693.026 417.395 L 1693.026 417.395 Q 1693.026 370.775 1647.666 370.775 L 1647.666 370.775 L 1592.856 370.775 L 1592.856 370.775 Q 1547.496 370.775 1547.496 417.395 L 1547.496 417.395 L 1547.496 622.145 L 1547.496 622.145 Q 1547.496 668.765 1592.856 668.765 L 1592.856 668.765 L 1647.666 668.765 L 1647.666 668.765 Q 1693.026 668.765 1693.026 622.145 L 1693.026 622.145 L 1693.026 594.425 L 1693.026 594.425 Q 1693.026 583.085 1703.736 583.085 L 1703.736 583.085 L 1743.426 583.085 L 1743.426 583.085 Q 1754.766 583.085 1754.766 594.425 L 1754.766 594.425 L 1754.766 624.665 L 1754.766 624.665 Q 1754.766 670.655 1728.936 696.485 L 1728.936 696.485 L 1728.936 696.485 Q 1703.106 722.315 1657.116 722.315 Z  M 1997.316 722.315 L 1997.316 722.315 L 1924.236 722.315 L 1924.236 722.315 Q 1877.616 722.315 1852.101 696.485 L 1852.101 696.485 L 1852.101 696.485 Q 1826.586 670.655 1826.586 624.665 L 1826.586 624.665 L 1826.586 414.875 L 1826.586 414.875 Q 1826.586 368.255 1852.101 342.74 L 1852.101 342.74 L 1852.101 342.74 Q 1877.616 317.225 1924.236 317.225 L 1924.236 317.225 L 1997.316 317.225 L 1997.316 317.225 Q 2043.306 317.225 2069.136 342.74 L 2069.136 342.74 L 2069.136 342.74 Q 2094.966 368.255 2094.966 414.875 L 2094.966 414.875 L 2094.966 445.115 L 2094.966 445.115 Q 2094.966 456.455 2083.626 456.455 L 2083.626 456.455 L 2043.936 456.455 L 2043.936 456.455 Q 2033.226 456.455 2033.226 445.115 L 2033.226 445.115 L 2033.226 417.395 L 2033.226 417.395 Q 2033.226 370.775 1987.866 370.775 L 1987.866 370.775 L 1933.056 370.775 L 1933.056 370.775 Q 1887.696 370.775 1887.696 417.395 L 1887.696 417.395 L 1887.696 622.145 L 1887.696 622.145 Q 1887.696 668.765 1933.056 668.765 L 1933.056 668.765 L 1987.866 668.765 L 1987.866 668.765 Q 2033.226 668.765 2033.226 622.145 L 2033.226 622.145 L 2033.226 594.425 L 2033.226 594.425 Q 2033.226 583.085 2043.936 583.085 L 2043.936 583.085 L 2083.626 583.085 L 2083.626 583.085 Q 2094.966 583.085 2094.966 594.425 L 2094.966 594.425 L 2094.966 624.665 L 2094.966 624.665 Q 2094.966 670.655 2069.136 696.485 L 2069.136 696.485 L 2069.136 696.485 Q 2043.306 722.315 1997.316 722.315 Z  M 2273.256 668.765 L 2273.256 668.765 L 2328.066 668.765 L 2328.066 668.765 Q 2374.056 668.765 2374.056 622.145 L 2374.056 622.145 L 2374.056 417.395 L 2374.056 417.395 Q 2374.056 370.775 2328.066 370.775 L 2328.066 370.775 L 2273.256 370.775 L 2273.256 370.775 Q 2227.896 370.775 2227.896 417.395 L 2227.896 417.395 L 2227.896 622.145 L 2227.896 622.145 Q 2227.896 668.765 2273.256 668.765 Z  M 2337.516 722.315 L 2337.516 722.315 L 2264.436 722.315 L 2264.436 722.315 Q 2217.816 722.315 2192.301 696.485 L 2192.301 696.485 L 2192.301 696.485 Q 2166.786 670.655 2166.786 624.665 L 2166.786 624.665 L 2166.786 414.875 L 2166.786 414.875 Q 2166.786 368.255 2192.301 342.74 L 2192.301 342.74 L 2192.301 342.74 Q 2217.816 317.225 2264.436 317.225 L 2264.436 317.225 L 2337.516 317.225 L 2337.516 317.225 Q 2384.136 317.225 2409.966 342.74 L 2409.966 342.74 L 2409.966 342.74 Q 2435.796 368.255 2435.796 414.875 L 2435.796 414.875 L 2435.796 624.665 L 2435.796 624.665 Q 2435.796 670.655 2409.966 696.485 L 2409.966 696.485 L 2409.966 696.485 Q 2384.136 722.315 2337.516 722.315 Z  M 2732.526 317.225 L 2732.526 317.225 L 2772.216 317.225 L 2772.216 317.225 Q 2783.556 317.225 2783.556 327.305 L 2783.556 327.305 L 2783.556 624.665 L 2783.556 624.665 Q 2783.556 670.655 2757.411 696.485 L 2757.411 696.485 L 2757.411 696.485 Q 2731.266 722.315 2685.276 722.315 L 2685.276 722.315 L 2615.346 722.315 L 2615.346 722.315 Q 2569.356 722.315 2543.526 696.485 L 2543.526 696.485 L 2543.526 696.485 Q 2517.696 670.655 2517.696 624.665 L 2517.696 624.665 L 2517.696 327.935 L 2517.696 327.935 Q 2517.696 317.225 2528.406 317.225 L 2528.406 317.225 L 2568.096 317.225 L 2568.096 317.225 Q 2578.806 317.225 2578.806 327.935 L 2578.806 327.935 L 2578.806 622.145 L 2578.806 622.145 Q 2578.806 668.765 2624.166 668.765 L 2624.166 668.765 L 2675.826 668.765 L 2675.826 668.765 Q 2721.816 668.765 2721.816 622.145 L 2721.816 622.145 L 2721.816 327.935 L 2721.816 327.935 Q 2721.816 317.225 2732.526 317.225 Z  M 2921.526 722.315 L 2921.526 722.315 L 2882.466 722.315 L 2882.466 722.315 Q 2871.756 722.315 2871.756 711.605 L 2871.756 711.605 L 2871.756 327.935 L 2871.756 327.935 Q 2871.756 317.225 2882.466 317.225 L 2882.466 317.225 L 2917.746 317.225 L 2917.746 317.225 Q 2927.826 317.225 2931.606 324.155 L 2931.606 324.155 L 3084.066 598.205 L 3086.586 598.205 L 3086.586 327.935 L 3086.586 327.935 Q 3086.586 317.225 3097.296 317.225 L 3097.296 317.225 L 3136.356 317.225 L 3136.356 317.225 Q 3147.066 317.225 3147.066 327.935 L 3147.066 327.935 L 3147.066 711.605 L 3147.066 711.605 Q 3147.066 722.315 3136.356 722.315 L 3136.356 722.315 L 3102.336 722.315 L 3102.336 722.315 Q 3092.256 722.315 3085.956 712.235 L 3085.956 712.235 L 2934.756 441.335 L 2932.236 441.335 L 2932.236 711.605 L 2932.236 711.605 Q 2932.236 722.315 2921.526 722.315 Z  M 3349.925 722.315 L 3349.925 722.315 L 3310.236 722.315 L 3310.236 722.315 Q 3298.896 722.315 3298.896 711.605 L 3298.896 711.605 L 3298.896 377.075 L 3298.896 377.075 Q 3298.896 370.775 3292.596 370.775 L 3292.596 370.775 L 3213.216 370.775 L 3213.216 370.775 Q 3201.876 370.775 3201.876 360.065 L 3201.876 360.065 L 3201.876 327.935 L 3201.876 327.935 Q 3201.876 317.225 3213.216 317.225 L 3213.216 317.225 L 3446.946 317.225 L 3446.946 317.225 Q 3458.286 317.225 3458.286 327.935 L 3458.286 327.935 L 3458.286 360.065 L 3458.286 360.065 Q 3458.286 370.775 3446.946 370.775 L 3446.946 370.775 L 3367.566 370.775 L 3367.566 370.775 Q 3360.635 370.775 3360.635 377.075 L 3360.635 377.075 L 3360.635 711.605 L 3360.635 711.605 Q 3360.635 722.315 3349.925 722.315 Z  M 3504.905 624.035 L 3504.905 624.035 L 3504.905 607.655 L 3504.905 607.655 Q 3504.905 596.945 3515.615 596.945 L 3515.615 596.945 L 3555.936 596.945 L 3555.936 596.945 Q 3566.646 596.945 3566.646 607.655 L 3566.646 607.655 L 3566.646 618.995 L 3566.646 618.995 Q 3566.646 645.455 3578.3 657.11 L 3578.3 657.11 L 3578.3 657.11 Q 3589.956 668.765 3617.046 668.765 L 3617.046 668.765 L 3660.516 668.765 L 3660.516 668.765 Q 3687.606 668.765 3699.576 656.48 L 3699.576 656.48 L 3699.576 656.48 Q 3711.546 644.195 3711.546 616.475 L 3711.546 616.475 L 3711.546 601.985 L 3711.546 601.985 Q 3711.546 581.825 3696.111 570.17 L 3696.111 570.17 L 3696.111 570.17 Q 3680.675 558.515 3657.996 555.05 L 3657.996 555.05 L 3657.996 555.05 Q 3635.316 551.585 3608.226 545.285 L 3608.226 545.285 L 3608.226 545.285 Q 3581.135 538.985 3558.456 530.795 L 3558.456 530.795 L 3558.456 530.795 Q 3535.776 522.605 3520.341 499.925 L 3520.341 499.925 L 3520.341 499.925 Q 3504.905 477.245 3504.905 441.965 L 3504.905 441.965 L 3504.905 415.505 L 3504.905 415.505 Q 3504.905 369.515 3531.05 343.37 L 3531.05 343.37 L 3531.05 343.37 Q 3557.196 317.225 3603.186 317.225 L 3603.186 317.225 L 3669.966 317.225 L 3669.966 317.225 Q 3716.586 317.225 3742.731 343.37 L 3742.731 343.37 L 3742.731 343.37 Q 3768.876 369.515 3768.876 415.505 L 3768.876 415.505 L 3768.876 429.365 L 3768.876 429.365 Q 3768.876 440.075 3758.166 440.075 L 3758.166 440.075 L 3717.846 440.075 L 3717.846 440.075 Q 3707.135 440.075 3707.135 429.365 L 3707.135 429.365 L 3707.135 421.175 L 3707.135 421.175 Q 3707.135 394.085 3695.481 382.43 L 3695.481 382.43 L 3695.481 382.43 Q 3683.826 370.775 3656.736 370.775 L 3656.736 370.775 L 3617.046 370.775 L 3617.046 370.775 Q 3589.956 370.775 3578.3 383.06 L 3578.3 383.06 L 3578.3 383.06 Q 3566.646 395.345 3566.646 424.955 L 3566.646 424.955 L 3566.646 444.485 L 3566.646 444.485 Q 3566.646 472.835 3607.596 482.915 L 3607.596 482.915 L 3607.596 482.915 Q 3625.865 487.325 3647.601 490.475 L 3647.601 490.475 L 3647.601 490.475 Q 3669.336 493.625 3691.385 499.925 L 3691.385 499.925 L 3691.385 499.925 Q 3713.436 506.225 3731.706 516.62 L 3731.706 516.62 L 3731.706 516.62 Q 3749.976 527.015 3761.316 548.12 L 3761.316 548.12 L 3761.316 548.12 Q 3772.655 569.225 3772.655 599.465 L 3772.655 599.465 L 3772.655 624.035 L 3772.655 624.035 Q 3772.655 670.025 3746.51 696.17 L 3746.51 696.17 L 3746.51 696.17 Q 3720.365 722.315 3674.376 722.315 L 3674.376 722.315 L 3603.816 722.315 L 3603.816 722.315 Q 3557.826 722.315 3531.365 696.17 L 3531.365 696.17 L 3531.365 696.17 Q 3504.905 670.025 3504.905 624.035 Z " fill-rule="evenodd" fill="rgb(255,255,255)"/><clipPath id="_clipPath_n2tHsq73IrhsPDu5EKUmJoiHYtp66sAg"><path d=" M 417.276 722.315 L 417.276 722.315 L 213.156 722.315 L 213.156 722.315 Q 202.446 722.315 202.446 711.605 L 202.446 711.605 L 202.446 327.935 L 202.446 327.935 Q 202.446 317.225 213.156 317.225 L 213.156 317.225 L 252.846 317.225 L 252.846 317.225 Q 263.556 317.225 263.556 327.935 L 263.556 327.935 L 263.556 661.205 L 263.556 661.205 Q 263.556 667.505 271.116 667.505 L 271.116 667.505 L 417.276 667.505 L 417.276 667.505 Q 427.986 667.505 427.986 678.845 L 427.986 678.845 L 427.986 711.605 L 427.986 711.605 Q 427.986 722.315 417.276 722.315 Z  M 620.136 722.315 L 620.136 722.315 L 579.816 722.315 L 579.816 722.315 Q 569.106 722.315 569.106 711.605 L 569.106 711.605 L 569.106 572.375 L 451.296 328.565 L 451.296 328.565 Q 448.776 323.525 451.296 320.375 L 451.296 320.375 L 451.296 320.375 Q 453.816 317.225 458.226 317.225 L 458.226 317.225 L 508.626 317.225 L 508.626 317.225 Q 516.816 317.225 521.226 327.935 L 521.226 327.935 L 598.716 501.185 L 602.496 501.185 L 678.726 327.935 L 678.726 327.935 Q 682.506 317.225 691.326 317.225 L 691.326 317.225 L 741.726 317.225 L 741.726 317.225 Q 746.766 317.225 748.971 320.375 L 748.971 320.375 L 748.971 320.375 Q 751.176 323.525 748.656 328.565 L 748.656 328.565 L 630.846 572.375 L 630.846 711.605 L 630.846 711.605 Q 630.846 722.315 620.136 722.315 Z  M 856.386 722.315 L 856.386 722.315 L 816.696 722.315 L 816.696 722.315 Q 805.986 722.315 805.986 711.605 L 805.986 711.605 L 805.986 327.935 L 805.986 327.935 Q 805.986 317.225 816.696 317.225 L 816.696 317.225 L 964.116 317.225 L 964.116 317.225 Q 1010.106 317.225 1036.251 343.37 L 1036.251 343.37 L 1036.251 343.37 Q 1062.396 369.515 1062.396 415.505 L 1062.396 415.505 L 1062.396 468.425 L 1062.396 468.425 Q 1062.396 540.875 1002.546 559.775 L 1002.546 559.775 L 1002.546 562.295 L 1072.476 709.715 L 1072.476 709.715 Q 1079.406 722.315 1064.286 722.315 L 1064.286 722.315 L 1025.226 722.315 L 1025.226 722.315 Q 1010.106 722.315 1005.696 711.605 L 1005.696 711.605 L 938.286 566.705 L 874.656 566.705 L 874.656 566.705 Q 867.096 566.705 867.096 573.005 L 867.096 573.005 L 867.096 711.605 L 867.096 711.605 Q 867.096 722.315 856.386 722.315 Z  M 874.026 516.305 L 874.026 516.305 L 954.036 516.305 L 954.036 516.305 Q 1000.656 516.305 1000.656 470.315 L 1000.656 470.315 L 1000.656 417.395 L 1000.656 417.395 Q 1000.656 370.775 954.036 370.775 L 954.036 370.775 L 874.026 370.775 L 874.026 370.775 Q 867.096 370.775 867.096 377.075 L 867.096 377.075 L 867.096 510.005 L 867.096 510.005 Q 867.096 516.305 874.026 516.305 Z  M 1169.496 722.315 L 1169.496 722.315 L 1124.136 722.315 L 1124.136 722.315 Q 1115.316 722.315 1117.836 711.605 L 1117.836 711.605 L 1227.456 327.935 L 1227.456 327.935 Q 1230.606 317.225 1242.576 317.225 L 1242.576 317.225 L 1305.576 317.225 L 1305.576 317.225 Q 1318.176 317.225 1320.696 327.935 L 1320.696 327.935 L 1430.316 711.605 L 1430.316 711.605 Q 1432.836 722.315 1423.386 722.315 L 1423.386 722.315 L 1378.656 722.315 L 1378.656 722.315 Q 1372.986 722.315 1370.781 720.11 L 1370.781 720.11 L 1370.781 720.11 Q 1368.576 717.905 1367.316 711.605 L 1367.316 711.605 L 1343.376 629.705 L 1204.776 629.705 L 1180.836 711.605 L 1180.836 711.605 Q 1178.316 722.315 1169.496 722.315 Z  M 1275.336 377.705 L 1272.816 377.705 L 1217.376 579.305 L 1331.406 579.305 L 1275.336 377.705 Z  M 1657.116 722.315 L 1657.116 722.315 L 1584.036 722.315 L 1584.036 722.315 Q 1537.416 722.315 1511.901 696.485 L 1511.901 696.485 L 1511.901 696.485 Q 1486.386 670.655 1486.386 624.665 L 1486.386 624.665 L 1486.386 414.875 L 1486.386 414.875 Q 1486.386 368.255 1511.901 342.74 L 1511.901 342.74 L 1511.901 342.74 Q 1537.416 317.225 1584.036 317.225 L 1584.036 317.225 L 1657.116 317.225 L 1657.116 317.225 Q 1703.106 317.225 1728.936 342.74 L 1728.936 342.74 L 1728.936 342.74 Q 1754.766 368.255 1754.766 414.875 L 1754.766 414.875 L 1754.766 445.115 L 1754.766 445.115 Q 1754.766 456.455 1743.426 456.455 L 1743.426 456.455 L 1703.736 456.455 L 1703.736 456.455 Q 1693.026 456.455 1693.026 445.115 L 1693.026 445.115 L 1693.026 417.395 L 1693.026 417.395 Q 1693.026 370.775 1647.666 370.775 L 1647.666 370.775 L 1592.856 370.775 L 1592.856 370.775 Q 1547.496 370.775 1547.496 417.395 L 1547.496 417.395 L 1547.496 622.145 L 1547.496 622.145 Q 1547.496 668.765 1592.856 668.765 L 1592.856 668.765 L 1647.666 668.765 L 1647.666 668.765 Q 1693.026 668.765 1693.026 622.145 L 1693.026 622.145 L 1693.026 594.425 L 1693.026 594.425 Q 1693.026 583.085 1703.736 583.085 L 1703.736 583.085 L 1743.426 583.085 L 1743.426 583.085 Q 1754.766 583.085 1754.766 594.425 L 1754.766 594.425 L 1754.766 624.665 L 1754.766 624.665 Q 1754.766 670.655 1728.936 696.485 L 1728.936 696.485 L 1728.936 696.485 Q 1703.106 722.315 1657.116 722.315 Z  M 1997.316 722.315 L 1997.316 722.315 L 1924.236 722.315 L 1924.236 722.315 Q 1877.616 722.315 1852.101 696.485 L 1852.101 696.485 L 1852.101 696.485 Q 1826.586 670.655 1826.586 624.665 L 1826.586 624.665 L 1826.586 414.875 L 1826.586 414.875 Q 1826.586 368.255 1852.101 342.74 L 1852.101 342.74 L 1852.101 342.74 Q 1877.616 317.225 1924.236 317.225 L 1924.236 317.225 L 1997.316 317.225 L 1997.316 317.225 Q 2043.306 317.225 2069.136 342.74 L 2069.136 342.74 L 2069.136 342.74 Q 2094.966 368.255 2094.966 414.875 L 2094.966 414.875 L 2094.966 445.115 L 2094.966 445.115 Q 2094.966 456.455 2083.626 456.455 L 2083.626 456.455 L 2043.936 456.455 L 2043.936 456.455 Q 2033.226 456.455 2033.226 445.115 L 2033.226 445.115 L 2033.226 417.395 L 2033.226 417.395 Q 2033.226 370.775 1987.866 370.775 L 1987.866 370.775 L 1933.056 370.775 L 1933.056 370.775 Q 1887.696 370.775 1887.696 417.395 L 1887.696 417.395 L 1887.696 622.145 L 1887.696 622.145 Q 1887.696 668.765 1933.056 668.765 L 1933.056 668.765 L 1987.866 668.765 L 1987.866 668.765 Q 2033.226 668.765 2033.226 622.145 L 2033.226 622.145 L 2033.226 594.425 L 2033.226 594.425 Q 2033.226 583.085 2043.936 583.085 L 2043.936 583.085 L 2083.626 583.085 L 2083.626 583.085 Q 2094.966 583.085 2094.966 594.425 L 2094.966 594.425 L 2094.966 624.665 L 2094.966 624.665 Q 2094.966 670.655 2069.136 696.485 L 2069.136 696.485 L 2069.136 696.485 Q 2043.306 722.315 1997.316 722.315 Z  M 2273.256 668.765 L 2273.256 668.765 L 2328.066 668.765 L 2328.066 668.765 Q 2374.056 668.765 2374.056 622.145 L 2374.056 622.145 L 2374.056 417.395 L 2374.056 417.395 Q 2374.056 370.775 2328.066 370.775 L 2328.066 370.775 L 2273.256 370.775 L 2273.256 370.775 Q 2227.896 370.775 2227.896 417.395 L 2227.896 417.395 L 2227.896 622.145 L 2227.896 622.145 Q 2227.896 668.765 2273.256 668.765 Z  M 2337.516 722.315 L 2337.516 722.315 L 2264.436 722.315 L 2264.436 722.315 Q 2217.816 722.315 2192.301 696.485 L 2192.301 696.485 L 2192.301 696.485 Q 2166.786 670.655 2166.786 624.665 L 2166.786 624.665 L 2166.786 414.875 L 2166.786 414.875 Q 2166.786 368.255 2192.301 342.74 L 2192.301 342.74 L 2192.301 342.74 Q 2217.816 317.225 2264.436 317.225 L 2264.436 317.225 L 2337.516 317.225 L 2337.516 317.225 Q 2384.136 317.225 2409.966 342.74 L 2409.966 342.74 L 2409.966 342.74 Q 2435.796 368.255 2435.796 414.875 L 2435.796 414.875 L 2435.796 624.665 L 2435.796 624.665 Q 2435.796 670.655 2409.966 696.485 L 2409.966 696.485 L 2409.966 696.485 Q 2384.136 722.315 2337.516 722.315 Z  M 2732.526 317.225 L 2732.526 317.225 L 2772.216 317.225 L 2772.216 317.225 Q 2783.556 317.225 2783.556 327.305 L 2783.556 327.305 L 2783.556 624.665 L 2783.556 624.665 Q 2783.556 670.655 2757.411 696.485 L 2757.411 696.485 L 2757.411 696.485 Q 2731.266 722.315 2685.276 722.315 L 2685.276 722.315 L 2615.346 722.315 L 2615.346 722.315 Q 2569.356 722.315 2543.526 696.485 L 2543.526 696.485 L 2543.526 696.485 Q 2517.696 670.655 2517.696 624.665 L 2517.696 624.665 L 2517.696 327.935 L 2517.696 327.935 Q 2517.696 317.225 2528.406 317.225 L 2528.406 317.225 L 2568.096 317.225 L 2568.096 317.225 Q 2578.806 317.225 2578.806 327.935 L 2578.806 327.935 L 2578.806 622.145 L 2578.806 622.145 Q 2578.806 668.765 2624.166 668.765 L 2624.166 668.765 L 2675.826 668.765 L 2675.826 668.765 Q 2721.816 668.765 2721.816 622.145 L 2721.816 622.145 L 2721.816 327.935 L 2721.816 327.935 Q 2721.816 317.225 2732.526 317.225 Z  M 2921.526 722.315 L 2921.526 722.315 L 2882.466 722.315 L 2882.466 722.315 Q 2871.756 722.315 2871.756 711.605 L 2871.756 711.605 L 2871.756 327.935 L 2871.756 327.935 Q 2871.756 317.225 2882.466 317.225 L 2882.466 317.225 L 2917.746 317.225 L 2917.746 317.225 Q 2927.826 317.225 2931.606 324.155 L 2931.606 324.155 L 3084.066 598.205 L 3086.586 598.205 L 3086.586 327.935 L 3086.586 327.935 Q 3086.586 317.225 3097.296 317.225 L 3097.296 317.225 L 3136.356 317.225 L 3136.356 317.225 Q 3147.066 317.225 3147.066 327.935 L 3147.066 327.935 L 3147.066 711.605 L 3147.066 711.605 Q 3147.066 722.315 3136.356 722.315 L 3136.356 722.315 L 3102.336 722.315 L 3102.336 722.315 Q 3092.256 722.315 3085.956 712.235 L 3085.956 712.235 L 2934.756 441.335 L 2932.236 441.335 L 2932.236 711.605 L 2932.236 711.605 Q 2932.236 722.315 2921.526 722.315 Z  M 3349.925 722.315 L 3349.925 722.315 L 3310.236 722.315 L 3310.236 722.315 Q 3298.896 722.315 3298.896 711.605 L 3298.896 711.605 L 3298.896 377.075 L 3298.896 377.075 Q 3298.896 370.775 3292.596 370.775 L 3292.596 370.775 L 3213.216 370.775 L 3213.216 370.775 Q 3201.876 370.775 3201.876 360.065 L 3201.876 360.065 L 3201.876 327.935 L 3201.876 327.935 Q 3201.876 317.225 3213.216 317.225 L 3213.216 317.225 L 3446.946 317.225 L 3446.946 317.225 Q 3458.286 317.225 3458.286 327.935 L 3458.286 327.935 L 3458.286 360.065 L 3458.286 360.065 Q 3458.286 370.775 3446.946 370.775 L 3446.946 370.775 L 3367.566 370.775 L 3367.566 370.775 Q 3360.635 370.775 3360.635 377.075 L 3360.635 377.075 L 3360.635 711.605 L 3360.635 711.605 Q 3360.635 722.315 3349.925 722.315 Z  M 3504.905 624.035 L 3504.905 624.035 L 3504.905 607.655 L 3504.905 607.655 Q 3504.905 596.945 3515.615 596.945 L 3515.615 596.945 L 3555.936 596.945 L 3555.936 596.945 Q 3566.646 596.945 3566.646 607.655 L 3566.646 607.655 L 3566.646 618.995 L 3566.646 618.995 Q 3566.646 645.455 3578.3 657.11 L 3578.3 657.11 L 3578.3 657.11 Q 3589.956 668.765 3617.046 668.765 L 3617.046 668.765 L 3660.516 668.765 L 3660.516 668.765 Q 3687.606 668.765 3699.576 656.48 L 3699.576 656.48 L 3699.576 656.48 Q 3711.546 644.195 3711.546 616.475 L 3711.546 616.475 L 3711.546 601.985 L 3711.546 601.985 Q 3711.546 581.825 3696.111 570.17 L 3696.111 570.17 L 3696.111 570.17 Q 3680.675 558.515 3657.996 555.05 L 3657.996 555.05 L 3657.996 555.05 Q 3635.316 551.585 3608.226 545.285 L 3608.226 545.285 L 3608.226 545.285 Q 3581.135 538.985 3558.456 530.795 L 3558.456 530.795 L 3558.456 530.795 Q 3535.776 522.605 3520.341 499.925 L 3520.341 499.925 L 3520.341 499.925 Q 3504.905 477.245 3504.905 441.965 L 3504.905 441.965 L 3504.905 415.505 L 3504.905 415.505 Q 3504.905 369.515 3531.05 343.37 L 3531.05 343.37 L 3531.05 343.37 Q 3557.196 317.225 3603.186 317.225 L 3603.186 317.225 L 3669.966 317.225 L 3669.966 317.225 Q 3716.586 317.225 3742.731 343.37 L 3742.731 343.37 L 3742.731 343.37 Q 3768.876 369.515 3768.876 415.505 L 3768.876 415.505 L 3768.876 429.365 L 3768.876 429.365 Q 3768.876 440.075 3758.166 440.075 L 3758.166 440.075 L 3717.846 440.075 L 3717.846 440.075 Q 3707.135 440.075 3707.135 429.365 L 3707.135 429.365 L 3707.135 421.175 L 3707.135 421.175 Q 3707.135 394.085 3695.481 382.43 L 3695.481 382.43 L 3695.481 382.43 Q 3683.826 370.775 3656.736 370.775 L 3656.736 370.775 L 3617.046 370.775 L 3617.046 370.775 Q 3589.956 370.775 3578.3 383.06 L 3578.3 383.06 L 3578.3 383.06 Q 3566.646 395.345 3566.646 424.955 L 3566.646 424.955 L 3566.646 444.485 L 3566.646 444.485 Q 3566.646 472.835 3607.596 482.915 L 3607.596 482.915 L 3607.596 482.915 Q 3625.865 487.325 3647.601 490.475 L 3647.601 490.475 L 3647.601 490.475 Q 3669.336 493.625 3691.385 499.925 L 3691.385 499.925 L 3691.385 499.925 Q 3713.436 506.225 3731.706 516.62 L 3731.706 516.62 L 3731.706 516.62 Q 3749.976 527.015 3761.316 548.12 L 3761.316 548.12 L 3761.316 548.12 Q 3772.655 569.225 3772.655 599.465 L 3772.655 599.465 L 3772.655 624.035 L 3772.655 624.035 Q 3772.655 670.025 3746.51 696.17 L 3746.51 696.17 L 3746.51 696.17 Q 3720.365 722.315 3674.376 722.315 L 3674.376 722.315 L 3603.816 722.315 L 3603.816 722.315 Q 3557.826 722.315 3531.365 696.17 L 3531.365 696.17 L 3531.365 696.17 Q 3504.905 670.025 3504.905 624.035 Z " fill-rule="evenodd" fill="rgb(255,255,255)"/></clipPath><g clip-path="url(#_clipPath_n2tHsq73IrhsPDu5EKUmJoiHYtp66sAg)"/></svg>