<?xml version="1.0" standalone="no"?><!-- Generator: Gravit.io --><svg xmlns="http://www.w3.org/2000/svg" xmlns:xlink="http://www.w3.org/1999/xlink" style="isolation:isolate" viewBox="41.832 0 3891.437 1039.54" width="3891.437" height="1039.54"><g opacity="0"><rect x="41.832" y="0" width="3891.437" height="1039.54" transform="matrix(1,0,0,1,0,0)" fill="rgb(12,20,45)"/></g><path d=" M 404.676 722.315 L 404.676 722.315 L 200.556 722.315 L 200.556 722.315 Q 189.845 722.315 189.845 711.605 L 189.845 711.605 L 189.845 327.935 L 189.845 327.935 Q 189.845 317.225 200.556 317.225 L 200.556 317.225 L 240.246 317.225 L 240.246 317.225 Q 250.956 317.225 250.956 327.935 L 250.956 327.935 L 250.956 661.205 L 250.956 661.205 Q 250.956 667.505 258.516 667.505 L 258.516 667.505 L 404.676 667.505 L 404.676 667.505 Q 415.386 667.505 415.386 678.845 L 415.386 678.845 L 415.386 711.605 L 415.386 711.605 Q 415.386 722.315 404.676 722.315 Z  M 495.396 722.315 L 495.396 722.315 L 450.035 722.315 L 450.035 722.315 Q 441.216 722.315 443.736 711.605 L 443.736 711.605 L 553.356 327.935 L 553.356 327.935 Q 556.505 317.225 568.476 317.225 L 568.476 317.225 L 631.476 317.225 L 631.476 317.225 Q 644.076 317.225 646.596 327.935 L 646.596 327.935 L 756.216 711.605 L 756.216 711.605 Q 758.736 722.315 749.285 722.315 L 749.285 722.315 L 704.556 722.315 L 704.556 722.315 Q 698.885 722.315 696.681 720.11 L 696.681 720.11 L 696.681 720.11 Q 694.476 717.905 693.216 711.605 L 693.216 711.605 L 669.275 629.705 L 530.676 629.705 L 506.736 711.605 L 506.736 711.605 Q 504.216 722.315 495.396 722.315 Z  M 601.236 377.705 L 598.716 377.705 L 543.275 579.305 L 657.306 579.305 L 601.236 377.705 Z  M 868.986 722.315 L 868.986 722.315 L 829.296 722.315 L 829.296 722.315 Q 818.586 722.315 818.586 711.605 L 818.586 711.605 L 818.586 327.935 L 818.586 327.935 Q 818.586 317.225 829.296 317.225 L 829.296 317.225 L 976.716 317.225 L 976.716 317.225 Q 1022.706 317.225 1048.851 343.37 L 1048.851 343.37 L 1048.851 343.37 Q 1074.996 369.515 1074.996 415.505 L 1074.996 415.505 L 1074.996 468.425 L 1074.996 468.425 Q 1074.996 540.875 1015.145 559.775 L 1015.145 559.775 L 1015.145 562.295 L 1085.076 709.715 L 1085.076 709.715 Q 1092.005 722.315 1076.885 722.315 L 1076.885 722.315 L 1037.826 722.315 L 1037.826 722.315 Q 1022.706 722.315 1018.296 711.605 L 1018.296 711.605 L 950.885 566.705 L 887.255 566.705 L 887.255 566.705 Q 879.696 566.705 879.696 573.005 L 879.696 573.005 L 879.696 711.605 L 879.696 711.605 Q 879.696 722.315 868.986 722.315 Z  M 886.626 516.305 L 886.626 516.305 L 966.635 516.305 L 966.635 516.305 Q 1013.255 516.305 1013.255 470.315 L 1013.255 470.315 L 1013.255 417.395 L 1013.255 417.395 Q 1013.255 370.775 966.635 370.775 L 966.635 370.775 L 886.626 370.775 L 886.626 370.775 Q 879.696 370.775 879.696 377.075 L 879.696 377.075 L 879.696 510.005 L 879.696 510.005 Q 879.696 516.305 886.626 516.305 Z  M 1182.096 722.315 L 1182.096 722.315 L 1136.736 722.315 L 1136.736 722.315 Q 1127.916 722.315 1130.436 711.605 L 1130.436 711.605 L 1240.056 327.935 L 1240.056 327.935 Q 1243.206 317.225 1255.176 317.225 L 1255.176 317.225 L 1318.176 317.225 L 1318.176 317.225 Q 1330.775 317.225 1333.296 327.935 L 1333.296 327.935 L 1442.916 711.605 L 1442.916 711.605 Q 1445.436 722.315 1435.986 722.315 L 1435.986 722.315 L 1391.255 722.315 L 1391.255 722.315 Q 1385.586 722.315 1383.38 720.11 L 1383.38 720.11 L 1383.38 720.11 Q 1381.176 717.905 1379.916 711.605 L 1379.916 711.605 L 1355.976 629.705 L 1217.376 629.705 L 1193.436 711.605 L 1193.436 711.605 Q 1190.916 722.315 1182.096 722.315 Z  M 1287.936 377.705 L 1285.416 377.705 L 1229.976 579.305 L 1344.005 579.305 L 1287.936 377.705 Z  M 1669.716 722.315 L 1669.716 722.315 L 1596.635 722.315 L 1596.635 722.315 Q 1550.015 722.315 1524.501 696.485 L 1524.501 696.485 L 1524.501 696.485 Q 1498.986 670.655 1498.986 624.665 L 1498.986 624.665 L 1498.986 414.875 L 1498.986 414.875 Q 1498.986 368.255 1524.501 342.74 L 1524.501 342.74 L 1524.501 342.74 Q 1550.015 317.225 1596.635 317.225 L 1596.635 317.225 L 1669.716 317.225 L 1669.716 317.225 Q 1715.706 317.225 1741.536 342.74 L 1741.536 342.74 L 1741.536 342.74 Q 1767.365 368.255 1767.365 414.875 L 1767.365 414.875 L 1767.365 445.115 L 1767.365 445.115 Q 1767.365 456.455 1756.026 456.455 L 1756.026 456.455 L 1716.335 456.455 L 1716.335 456.455 Q 1705.625 456.455 1705.625 445.115 L 1705.625 445.115 L 1705.625 417.395 L 1705.625 417.395 Q 1705.625 370.775 1660.266 370.775 L 1660.266 370.775 L 1605.456 370.775 L 1605.456 370.775 Q 1560.095 370.775 1560.095 417.395 L 1560.095 417.395 L 1560.095 622.145 L 1560.095 622.145 Q 1560.095 668.765 1605.456 668.765 L 1605.456 668.765 L 1660.266 668.765 L 1660.266 668.765 Q 1705.625 668.765 1705.625 622.145 L 1705.625 622.145 L 1705.625 594.425 L 1705.625 594.425 Q 1705.625 583.085 1716.335 583.085 L 1716.335 583.085 L 1756.026 583.085 L 1756.026 583.085 Q 1767.365 583.085 1767.365 594.425 L 1767.365 594.425 L 1767.365 624.665 L 1767.365 624.665 Q 1767.365 670.655 1741.536 696.485 L 1741.536 696.485 L 1741.536 696.485 Q 1715.706 722.315 1669.716 722.315 Z  M 2009.916 722.315 L 2009.916 722.315 L 1936.835 722.315 L 1936.835 722.315 Q 1890.216 722.315 1864.7 696.485 L 1864.7 696.485 L 1864.7 696.485 Q 1839.186 670.655 1839.186 624.665 L 1839.186 624.665 L 1839.186 414.875 L 1839.186 414.875 Q 1839.186 368.255 1864.7 342.74 L 1864.7 342.74 L 1864.7 342.74 Q 1890.216 317.225 1936.835 317.225 L 1936.835 317.225 L 2009.916 317.225 L 2009.916 317.225 Q 2055.905 317.225 2081.736 342.74 L 2081.736 342.74 L 2081.736 342.74 Q 2107.565 368.255 2107.565 414.875 L 2107.565 414.875 L 2107.565 445.115 L 2107.565 445.115 Q 2107.565 456.455 2096.226 456.455 L 2096.226 456.455 L 2056.536 456.455 L 2056.536 456.455 Q 2045.825 456.455 2045.825 445.115 L 2045.825 445.115 L 2045.825 417.395 L 2045.825 417.395 Q 2045.825 370.775 2000.466 370.775 L 2000.466 370.775 L 1945.655 370.775 L 1945.655 370.775 Q 1900.296 370.775 1900.296 417.395 L 1900.296 417.395 L 1900.296 622.145 L 1900.296 622.145 Q 1900.296 668.765 1945.655 668.765 L 1945.655 668.765 L 2000.466 668.765 L 2000.466 668.765 Q 2045.825 668.765 2045.825 622.145 L 2045.825 622.145 L 2045.825 594.425 L 2045.825 594.425 Q 2045.825 583.085 2056.536 583.085 L 2056.536 583.085 L 2096.226 583.085 L 2096.226 583.085 Q 2107.565 583.085 2107.565 594.425 L 2107.565 594.425 L 2107.565 624.665 L 2107.565 624.665 Q 2107.565 670.655 2081.736 696.485 L 2081.736 696.485 L 2081.736 696.485 Q 2055.905 722.315 2009.916 722.315 Z  M 2285.855 668.765 L 2285.855 668.765 L 2340.666 668.765 L 2340.666 668.765 Q 2386.655 668.765 2386.655 622.145 L 2386.655 622.145 L 2386.655 417.395 L 2386.655 417.395 Q 2386.655 370.775 2340.666 370.775 L 2340.666 370.775 L 2285.855 370.775 L 2285.855 370.775 Q 2240.496 370.775 2240.496 417.395 L 2240.496 417.395 L 2240.496 622.145 L 2240.496 622.145 Q 2240.496 668.765 2285.855 668.765 Z  M 2350.115 722.315 L 2350.115 722.315 L 2277.036 722.315 L 2277.036 722.315 Q 2230.416 722.315 2204.901 696.485 L 2204.901 696.485 L 2204.901 696.485 Q 2179.385 670.655 2179.385 624.665 L 2179.385 624.665 L 2179.385 414.875 L 2179.385 414.875 Q 2179.385 368.255 2204.901 342.74 L 2204.901 342.74 L 2204.901 342.74 Q 2230.416 317.225 2277.036 317.225 L 2277.036 317.225 L 2350.115 317.225 L 2350.115 317.225 Q 2396.736 317.225 2422.565 342.74 L 2422.565 342.74 L 2422.565 342.74 Q 2448.395 368.255 2448.395 414.875 L 2448.395 414.875 L 2448.395 624.665 L 2448.395 624.665 Q 2448.395 670.655 2422.565 696.485 L 2422.565 696.485 L 2422.565 696.485 Q 2396.736 722.315 2350.115 722.315 Z  M 2745.125 317.225 L 2745.125 317.225 L 2784.815 317.225 L 2784.815 317.225 Q 2796.155 317.225 2796.155 327.305 L 2796.155 327.305 L 2796.155 624.665 L 2796.155 624.665 Q 2796.155 670.655 2770.01 696.485 L 2770.01 696.485 L 2770.01 696.485 Q 2743.865 722.315 2697.875 722.315 L 2697.875 722.315 L 2627.946 722.315 L 2627.946 722.315 Q 2581.956 722.315 2556.125 696.485 L 2556.125 696.485 L 2556.125 696.485 Q 2530.296 670.655 2530.296 624.665 L 2530.296 624.665 L 2530.296 327.935 L 2530.296 327.935 Q 2530.296 317.225 2541.006 317.225 L 2541.006 317.225 L 2580.696 317.225 L 2580.696 317.225 Q 2591.405 317.225 2591.405 327.935 L 2591.405 327.935 L 2591.405 622.145 L 2591.405 622.145 Q 2591.405 668.765 2636.766 668.765 L 2636.766 668.765 L 2688.426 668.765 L 2688.426 668.765 Q 2734.416 668.765 2734.416 622.145 L 2734.416 622.145 L 2734.416 327.935 L 2734.416 327.935 Q 2734.416 317.225 2745.125 317.225 Z  M 2934.125 722.315 L 2934.125 722.315 L 2895.065 722.315 L 2895.065 722.315 Q 2884.355 722.315 2884.355 711.605 L 2884.355 711.605 L 2884.355 327.935 L 2884.355 327.935 Q 2884.355 317.225 2895.065 317.225 L 2895.065 317.225 L 2930.345 317.225 L 2930.345 317.225 Q 2940.426 317.225 2944.206 324.155 L 2944.206 324.155 L 3096.666 598.205 L 3099.186 598.205 L 3099.186 327.935 L 3099.186 327.935 Q 3099.186 317.225 3109.895 317.225 L 3109.895 317.225 L 3148.956 317.225 L 3148.956 317.225 Q 3159.666 317.225 3159.666 327.935 L 3159.666 327.935 L 3159.666 711.605 L 3159.666 711.605 Q 3159.666 722.315 3148.956 722.315 L 3148.956 722.315 L 3114.936 722.315 L 3114.936 722.315 Q 3104.855 722.315 3098.556 712.235 L 3098.556 712.235 L 2947.355 441.335 L 2944.835 441.335 L 2944.835 711.605 L 2944.835 711.605 Q 2944.835 722.315 2934.125 722.315 Z  M 3362.526 722.315 L 3362.526 722.315 L 3322.835 722.315 L 3322.835 722.315 Q 3311.496 722.315 3311.496 711.605 L 3311.496 711.605 L 3311.496 377.075 L 3311.496 377.075 Q 3311.496 370.775 3305.196 370.775 L 3305.196 370.775 L 3225.815 370.775 L 3225.815 370.775 Q 3214.476 370.775 3214.476 360.065 L 3214.476 360.065 L 3214.476 327.935 L 3214.476 327.935 Q 3214.476 317.225 3225.815 317.225 L 3225.815 317.225 L 3459.546 317.225 L 3459.546 317.225 Q 3470.885 317.225 3470.885 327.935 L 3470.885 327.935 L 3470.885 360.065 L 3470.885 360.065 Q 3470.885 370.775 3459.546 370.775 L 3459.546 370.775 L 3380.166 370.775 L 3380.166 370.775 Q 3373.236 370.775 3373.236 377.075 L 3373.236 377.075 L 3373.236 711.605 L 3373.236 711.605 Q 3373.236 722.315 3362.526 722.315 Z  M 3517.506 624.035 L 3517.506 624.035 L 3517.506 607.655 L 3517.506 607.655 Q 3517.506 596.945 3528.216 596.945 L 3528.216 596.945 L 3568.536 596.945 L 3568.536 596.945 Q 3579.246 596.945 3579.246 607.655 L 3579.246 607.655 L 3579.246 618.995 L 3579.246 618.995 Q 3579.246 645.455 3590.901 657.11 L 3590.901 657.11 L 3590.901 657.11 Q 3602.556 668.765 3629.646 668.765 L 3629.646 668.765 L 3673.115 668.765 L 3673.115 668.765 Q 3700.205 668.765 3712.176 656.48 L 3712.176 656.48 L 3712.176 656.48 Q 3724.146 644.195 3724.146 616.475 L 3724.146 616.475 L 3724.146 601.985 L 3724.146 601.985 Q 3724.146 581.825 3708.711 570.17 L 3708.711 570.17 L 3708.711 570.17 Q 3693.276 558.515 3670.595 555.05 L 3670.595 555.05 L 3670.595 555.05 Q 3647.916 551.585 3620.825 545.285 L 3620.825 545.285 L 3620.825 545.285 Q 3593.736 538.985 3571.056 530.795 L 3571.056 530.795 L 3571.056 530.795 Q 3548.375 522.605 3532.94 499.925 L 3532.94 499.925 L 3532.94 499.925 Q 3517.506 477.245 3517.506 441.965 L 3517.506 441.965 L 3517.506 415.505 L 3517.506 415.505 Q 3517.506 369.515 3543.651 343.37 L 3543.651 343.37 L 3543.651 343.37 Q 3569.796 317.225 3615.785 317.225 L 3615.785 317.225 L 3682.566 317.225 L 3682.566 317.225 Q 3729.186 317.225 3755.33 343.37 L 3755.33 343.37 L 3755.33 343.37 Q 3781.475 369.515 3781.475 415.505 L 3781.475 415.505 L 3781.475 429.365 L 3781.475 429.365 Q 3781.475 440.075 3770.765 440.075 L 3770.765 440.075 L 3730.446 440.075 L 3730.446 440.075 Q 3719.736 440.075 3719.736 429.365 L 3719.736 429.365 L 3719.736 421.175 L 3719.736 421.175 Q 3719.736 394.085 3708.08 382.43 L 3708.08 382.43 L 3708.08 382.43 Q 3696.426 370.775 3669.336 370.775 L 3669.336 370.775 L 3629.646 370.775 L 3629.646 370.775 Q 3602.556 370.775 3590.901 383.06 L 3590.901 383.06 L 3590.901 383.06 Q 3579.246 395.345 3579.246 424.955 L 3579.246 424.955 L 3579.246 444.485 L 3579.246 444.485 Q 3579.246 472.835 3620.196 482.915 L 3620.196 482.915 L 3620.196 482.915 Q 3638.466 487.325 3660.2 490.475 L 3660.2 490.475 L 3660.2 490.475 Q 3681.936 493.625 3703.986 499.925 L 3703.986 499.925 L 3703.986 499.925 Q 3726.035 506.225 3744.305 516.62 L 3744.305 516.62 L 3744.305 516.62 Q 3762.575 527.015 3773.916 548.12 L 3773.916 548.12 L 3773.916 548.12 Q 3785.256 569.225 3785.256 599.465 L 3785.256 599.465 L 3785.256 624.035 L 3785.256 624.035 Q 3785.256 670.025 3759.111 696.17 L 3759.111 696.17 L 3759.111 696.17 Q 3732.966 722.315 3686.975 722.315 L 3686.975 722.315 L 3616.416 722.315 L 3616.416 722.315 Q 3570.426 722.315 3543.966 696.17 L 3543.966 696.17 L 3543.966 696.17 Q 3517.506 670.025 3517.506 624.035 Z " fill-rule="evenodd" fill="rgb(255,255,255)"/><clipPath id="_clipPath_zYoR15iksjSMsVHyOxwr6MhRUExaewvY"><path d=" M 404.676 722.315 L 404.676 722.315 L 200.556 722.315 L 200.556 722.315 Q 189.845 722.315 189.845 711.605 L 189.845 711.605 L 189.845 327.935 L 189.845 327.935 Q 189.845 317.225 200.556 317.225 L 200.556 317.225 L 240.246 317.225 L 240.246 317.225 Q 250.956 317.225 250.956 327.935 L 250.956 327.935 L 250.956 661.205 L 250.956 661.205 Q 250.956 667.505 258.516 667.505 L 258.516 667.505 L 404.676 667.505 L 404.676 667.505 Q 415.386 667.505 415.386 678.845 L 415.386 678.845 L 415.386 711.605 L 415.386 711.605 Q 415.386 722.315 404.676 722.315 Z  M 495.396 722.315 L 495.396 722.315 L 450.035 722.315 L 450.035 722.315 Q 441.216 722.315 443.736 711.605 L 443.736 711.605 L 553.356 327.935 L 553.356 327.935 Q 556.505 317.225 568.476 317.225 L 568.476 317.225 L 631.476 317.225 L 631.476 317.225 Q 644.076 317.225 646.596 327.935 L 646.596 327.935 L 756.216 711.605 L 756.216 711.605 Q 758.736 722.315 749.285 722.315 L 749.285 722.315 L 704.556 722.315 L 704.556 722.315 Q 698.885 722.315 696.681 720.11 L 696.681 720.11 L 696.681 720.11 Q 694.476 717.905 693.216 711.605 L 693.216 711.605 L 669.275 629.705 L 530.676 629.705 L 506.736 711.605 L 506.736 711.605 Q 504.216 722.315 495.396 722.315 Z  M 601.236 377.705 L 598.716 377.705 L 543.275 579.305 L 657.306 579.305 L 601.236 377.705 Z  M 868.986 722.315 L 868.986 722.315 L 829.296 722.315 L 829.296 722.315 Q 818.586 722.315 818.586 711.605 L 818.586 711.605 L 818.586 327.935 L 818.586 327.935 Q 818.586 317.225 829.296 317.225 L 829.296 317.225 L 976.716 317.225 L 976.716 317.225 Q 1022.706 317.225 1048.851 343.37 L 1048.851 343.37 L 1048.851 343.37 Q 1074.996 369.515 1074.996 415.505 L 1074.996 415.505 L 1074.996 468.425 L 1074.996 468.425 Q 1074.996 540.875 1015.145 559.775 L 1015.145 559.775 L 1015.145 562.295 L 1085.076 709.715 L 1085.076 709.715 Q 1092.005 722.315 1076.885 722.315 L 1076.885 722.315 L 1037.826 722.315 L 1037.826 722.315 Q 1022.706 722.315 1018.296 711.605 L 1018.296 711.605 L 950.885 566.705 L 887.255 566.705 L 887.255 566.705 Q 879.696 566.705 879.696 573.005 L 879.696 573.005 L 879.696 711.605 L 879.696 711.605 Q 879.696 722.315 868.986 722.315 Z  M 886.626 516.305 L 886.626 516.305 L 966.635 516.305 L 966.635 516.305 Q 1013.255 516.305 1013.255 470.315 L 1013.255 470.315 L 1013.255 417.395 L 1013.255 417.395 Q 1013.255 370.775 966.635 370.775 L 966.635 370.775 L 886.626 370.775 L 886.626 370.775 Q 879.696 370.775 879.696 377.075 L 879.696 377.075 L 879.696 510.005 L 879.696 510.005 Q 879.696 516.305 886.626 516.305 Z  M 1182.096 722.315 L 1182.096 722.315 L 1136.736 722.315 L 1136.736 722.315 Q 1127.916 722.315 1130.436 711.605 L 1130.436 711.605 L 1240.056 327.935 L 1240.056 327.935 Q 1243.206 317.225 1255.176 317.225 L 1255.176 317.225 L 1318.176 317.225 L 1318.176 317.225 Q 1330.775 317.225 1333.296 327.935 L 1333.296 327.935 L 1442.916 711.605 L 1442.916 711.605 Q 1445.436 722.315 1435.986 722.315 L 1435.986 722.315 L 1391.255 722.315 L 1391.255 722.315 Q 1385.586 722.315 1383.38 720.11 L 1383.38 720.11 L 1383.38 720.11 Q 1381.176 717.905 1379.916 711.605 L 1379.916 711.605 L 1355.976 629.705 L 1217.376 629.705 L 1193.436 711.605 L 1193.436 711.605 Q 1190.916 722.315 1182.096 722.315 Z  M 1287.936 377.705 L 1285.416 377.705 L 1229.976 579.305 L 1344.005 579.305 L 1287.936 377.705 Z  M 1669.716 722.315 L 1669.716 722.315 L 1596.635 722.315 L 1596.635 722.315 Q 1550.015 722.315 1524.501 696.485 L 1524.501 696.485 L 1524.501 696.485 Q 1498.986 670.655 1498.986 624.665 L 1498.986 624.665 L 1498.986 414.875 L 1498.986 414.875 Q 1498.986 368.255 1524.501 342.74 L 1524.501 342.74 L 1524.501 342.74 Q 1550.015 317.225 1596.635 317.225 L 1596.635 317.225 L 1669.716 317.225 L 1669.716 317.225 Q 1715.706 317.225 1741.536 342.74 L 1741.536 342.74 L 1741.536 342.74 Q 1767.365 368.255 1767.365 414.875 L 1767.365 414.875 L 1767.365 445.115 L 1767.365 445.115 Q 1767.365 456.455 1756.026 456.455 L 1756.026 456.455 L 1716.335 456.455 L 1716.335 456.455 Q 1705.625 456.455 1705.625 445.115 L 1705.625 445.115 L 1705.625 417.395 L 1705.625 417.395 Q 1705.625 370.775 1660.266 370.775 L 1660.266 370.775 L 1605.456 370.775 L 1605.456 370.775 Q 1560.095 370.775 1560.095 417.395 L 1560.095 417.395 L 1560.095 622.145 L 1560.095 622.145 Q 1560.095 668.765 1605.456 668.765 L 1605.456 668.765 L 1660.266 668.765 L 1660.266 668.765 Q 1705.625 668.765 1705.625 622.145 L 1705.625 622.145 L 1705.625 594.425 L 1705.625 594.425 Q 1705.625 583.085 1716.335 583.085 L 1716.335 583.085 L 1756.026 583.085 L 1756.026 583.085 Q 1767.365 583.085 1767.365 594.425 L 1767.365 594.425 L 1767.365 624.665 L 1767.365 624.665 Q 1767.365 670.655 1741.536 696.485 L 1741.536 696.485 L 1741.536 696.485 Q 1715.706 722.315 1669.716 722.315 Z  M 2009.916 722.315 L 2009.916 722.315 L 1936.835 722.315 L 1936.835 722.315 Q 1890.216 722.315 1864.7 696.485 L 1864.7 696.485 L 1864.7 696.485 Q 1839.186 670.655 1839.186 624.665 L 1839.186 624.665 L 1839.186 414.875 L 1839.186 414.875 Q 1839.186 368.255 1864.7 342.74 L 1864.7 342.74 L 1864.7 342.74 Q 1890.216 317.225 1936.835 317.225 L 1936.835 317.225 L 2009.916 317.225 L 2009.916 317.225 Q 2055.905 317.225 2081.736 342.74 L 2081.736 342.74 L 2081.736 342.74 Q 2107.565 368.255 2107.565 414.875 L 2107.565 414.875 L 2107.565 445.115 L 2107.565 445.115 Q 2107.565 456.455 2096.226 456.455 L 2096.226 456.455 L 2056.536 456.455 L 2056.536 456.455 Q 2045.825 456.455 2045.825 445.115 L 2045.825 445.115 L 2045.825 417.395 L 2045.825 417.395 Q 2045.825 370.775 2000.466 370.775 L 2000.466 370.775 L 1945.655 370.775 L 1945.655 370.775 Q 1900.296 370.775 1900.296 417.395 L 1900.296 417.395 L 1900.296 622.145 L 1900.296 622.145 Q 1900.296 668.765 1945.655 668.765 L 1945.655 668.765 L 2000.466 668.765 L 2000.466 668.765 Q 2045.825 668.765 2045.825 622.145 L 2045.825 622.145 L 2045.825 594.425 L 2045.825 594.425 Q 2045.825 583.085 2056.536 583.085 L 2056.536 583.085 L 2096.226 583.085 L 2096.226 583.085 Q 2107.565 583.085 2107.565 594.425 L 2107.565 594.425 L 2107.565 624.665 L 2107.565 624.665 Q 2107.565 670.655 2081.736 696.485 L 2081.736 696.485 L 2081.736 696.485 Q 2055.905 722.315 2009.916 722.315 Z  M 2285.855 668.765 L 2285.855 668.765 L 2340.666 668.765 L 2340.666 668.765 Q 2386.655 668.765 2386.655 622.145 L 2386.655 622.145 L 2386.655 417.395 L 2386.655 417.395 Q 2386.655 370.775 2340.666 370.775 L 2340.666 370.775 L 2285.855 370.775 L 2285.855 370.775 Q 2240.496 370.775 2240.496 417.395 L 2240.496 417.395 L 2240.496 622.145 L 2240.496 622.145 Q 2240.496 668.765 2285.855 668.765 Z  M 2350.115 722.315 L 2350.115 722.315 L 2277.036 722.315 L 2277.036 722.315 Q 2230.416 722.315 2204.901 696.485 L 2204.901 696.485 L 2204.901 696.485 Q 2179.385 670.655 2179.385 624.665 L 2179.385 624.665 L 2179.385 414.875 L 2179.385 414.875 Q 2179.385 368.255 2204.901 342.74 L 2204.901 342.74 L 2204.901 342.74 Q 2230.416 317.225 2277.036 317.225 L 2277.036 317.225 L 2350.115 317.225 L 2350.115 317.225 Q 2396.736 317.225 2422.565 342.74 L 2422.565 342.74 L 2422.565 342.74 Q 2448.395 368.255 2448.395 414.875 L 2448.395 414.875 L 2448.395 624.665 L 2448.395 624.665 Q 2448.395 670.655 2422.565 696.485 L 2422.565 696.485 L 2422.565 696.485 Q 2396.736 722.315 2350.115 722.315 Z  M 2745.125 317.225 L 2745.125 317.225 L 2784.815 317.225 L 2784.815 317.225 Q 2796.155 317.225 2796.155 327.305 L 2796.155 327.305 L 2796.155 624.665 L 2796.155 624.665 Q 2796.155 670.655 2770.01 696.485 L 2770.01 696.485 L 2770.01 696.485 Q 2743.865 722.315 2697.875 722.315 L 2697.875 722.315 L 2627.946 722.315 L 2627.946 722.315 Q 2581.956 722.315 2556.125 696.485 L 2556.125 696.485 L 2556.125 696.485 Q 2530.296 670.655 2530.296 624.665 L 2530.296 624.665 L 2530.296 327.935 L 2530.296 327.935 Q 2530.296 317.225 2541.006 317.225 L 2541.006 317.225 L 2580.696 317.225 L 2580.696 317.225 Q 2591.405 317.225 2591.405 327.935 L 2591.405 327.935 L 2591.405 622.145 L 2591.405 622.145 Q 2591.405 668.765 2636.766 668.765 L 2636.766 668.765 L 2688.426 668.765 L 2688.426 668.765 Q 2734.416 668.765 2734.416 622.145 L 2734.416 622.145 L 2734.416 327.935 L 2734.416 327.935 Q 2734.416 317.225 2745.125 317.225 Z  M 2934.125 722.315 L 2934.125 722.315 L 2895.065 722.315 L 2895.065 722.315 Q 2884.355 722.315 2884.355 711.605 L 2884.355 711.605 L 2884.355 327.935 L 2884.355 327.935 Q 2884.355 317.225 2895.065 317.225 L 2895.065 317.225 L 2930.345 317.225 L 2930.345 317.225 Q 2940.426 317.225 2944.206 324.155 L 2944.206 324.155 L 3096.666 598.205 L 3099.186 598.205 L 3099.186 327.935 L 3099.186 327.935 Q 3099.186 317.225 3109.895 317.225 L 3109.895 317.225 L 3148.956 317.225 L 3148.956 317.225 Q 3159.666 317.225 3159.666 327.935 L 3159.666 327.935 L 3159.666 711.605 L 3159.666 711.605 Q 3159.666 722.315 3148.956 722.315 L 3148.956 722.315 L 3114.936 722.315 L 3114.936 722.315 Q 3104.855 722.315 3098.556 712.235 L 3098.556 712.235 L 2947.355 441.335 L 2944.835 441.335 L 2944.835 711.605 L 2944.835 711.605 Q 2944.835 722.315 2934.125 722.315 Z  M 3362.526 722.315 L 3362.526 722.315 L 3322.835 722.315 L 3322.835 722.315 Q 3311.496 722.315 3311.496 711.605 L 3311.496 711.605 L 3311.496 377.075 L 3311.496 377.075 Q 3311.496 370.775 3305.196 370.775 L 3305.196 370.775 L 3225.815 370.775 L 3225.815 370.775 Q 3214.476 370.775 3214.476 360.065 L 3214.476 360.065 L 3214.476 327.935 L 3214.476 327.935 Q 3214.476 317.225 3225.815 317.225 L 3225.815 317.225 L 3459.546 317.225 L 3459.546 317.225 Q 3470.885 317.225 3470.885 327.935 L 3470.885 327.935 L 3470.885 360.065 L 3470.885 360.065 Q 3470.885 370.775 3459.546 370.775 L 3459.546 370.775 L 3380.166 370.775 L 3380.166 370.775 Q 3373.236 370.775 3373.236 377.075 L 3373.236 377.075 L 3373.236 711.605 L 3373.236 711.605 Q 3373.236 722.315 3362.526 722.315 Z  M 3517.506 624.035 L 3517.506 624.035 L 3517.506 607.655 L 3517.506 607.655 Q 3517.506 596.945 3528.216 596.945 L 3528.216 596.945 L 3568.536 596.945 L 3568.536 596.945 Q 3579.246 596.945 3579.246 607.655 L 3579.246 607.655 L 3579.246 618.995 L 3579.246 618.995 Q 3579.246 645.455 3590.901 657.11 L 3590.901 657.11 L 3590.901 657.11 Q 3602.556 668.765 3629.646 668.765 L 3629.646 668.765 L 3673.115 668.765 L 3673.115 668.765 Q 3700.205 668.765 3712.176 656.48 L 3712.176 656.48 L 3712.176 656.48 Q 3724.146 644.195 3724.146 616.475 L 3724.146 616.475 L 3724.146 601.985 L 3724.146 601.985 Q 3724.146 581.825 3708.711 570.17 L 3708.711 570.17 L 3708.711 570.17 Q 3693.276 558.515 3670.595 555.05 L 3670.595 555.05 L 3670.595 555.05 Q 3647.916 551.585 3620.825 545.285 L 3620.825 545.285 L 3620.825 545.285 Q 3593.736 538.985 3571.056 530.795 L 3571.056 530.795 L 3571.056 530.795 Q 3548.375 522.605 3532.94 499.925 L 3532.94 499.925 L 3532.94 499.925 Q 3517.506 477.245 3517.506 441.965 L 3517.506 441.965 L 3517.506 415.505 L 3517.506 415.505 Q 3517.506 369.515 3543.651 343.37 L 3543.651 343.37 L 3543.651 343.37 Q 3569.796 317.225 3615.785 317.225 L 3615.785 317.225 L 3682.566 317.225 L 3682.566 317.225 Q 3729.186 317.225 3755.33 343.37 L 3755.33 343.37 L 3755.33 343.37 Q 3781.475 369.515 3781.475 415.505 L 3781.475 415.505 L 3781.475 429.365 L 3781.475 429.365 Q 3781.475 440.075 3770.765 440.075 L 3770.765 440.075 L 3730.446 440.075 L 3730.446 440.075 Q 3719.736 440.075 3719.736 429.365 L 3719.736 429.365 L 3719.736 421.175 L 3719.736 421.175 Q 3719.736 394.085 3708.08 382.43 L 3708.08 382.43 L 3708.08 382.43 Q 3696.426 370.775 3669.336 370.775 L 3669.336 370.775 L 3629.646 370.775 L 3629.646 370.775 Q 3602.556 370.775 3590.901 383.06 L 3590.901 383.06 L 3590.901 383.06 Q 3579.246 395.345 3579.246 424.955 L 3579.246 424.955 L 3579.246 444.485 L 3579.246 444.485 Q 3579.246 472.835 3620.196 482.915 L 3620.196 482.915 L 3620.196 482.915 Q 3638.466 487.325 3660.2 490.475 L 3660.2 490.475 L 3660.2 490.475 Q 3681.936 493.625 3703.986 499.925 L 3703.986 499.925 L 3703.986 499.925 Q 3726.035 506.225 3744.305 516.62 L 3744.305 516.62 L 3744.305 516.62 Q 3762.575 527.015 3773.916 548.12 L 3773.916 548.12 L 3773.916 548.12 Q 3785.256 569.225 3785.256 599.465 L 3785.256 599.465 L 3785.256 624.035 L 3785.256 624.035 Q 3785.256 670.025 3759.111 696.17 L 3759.111 696.17 L 3759.111 696.17 Q 3732.966 722.315 3686.975 722.315 L 3686.975 722.315 L 3616.416 722.315 L 3616.416 722.315 Q 3570.426 722.315 3543.966 696.17 L 3543.966 696.17 L 3543.966 696.17 Q 3517.506 670.025 3517.506 624.035 Z " fill-rule="evenodd" fill="rgb(255,255,255)"/></clipPath><g clip-path="url(#_clipPath_zYoR15iksjSMsVHyOxwr6MhRUExaewvY)"/></svg>